<?xml version="1.0" encoding="utf-8"?>
<!-- Generator: Adobe Illustrator 18.0.0, SVG Export Plug-In . SVG Version: 6.00 Build 0)  -->
<!DOCTYPE svg PUBLIC "-//W3C//DTD SVG 1.1//EN" "http://www.w3.org/Graphics/SVG/1.1/DTD/svg11.dtd">
<svg version="1.1" xmlns="http://www.w3.org/2000/svg" xmlns:xlink="http://www.w3.org/1999/xlink" x="0px" y="0px"
	 viewBox="0 0 200 200" enable-background="new 0 0 200 200" xml:space="preserve">
<g id="Layer_0" display="none">
	<g display="inline">
		<g display="none">
			<path display="inline" fill="#D36363" d="M-1166.5381-149.6177h-2.3457c-0.7004,0-1.1838-0.7014-0.9346-1.3559
				c0,0,4.0085-8.5044,4.4083-11.575c0.0775-0.5952-0.0265-1.3261-0.0598-1.5847c-0.1794-1.3944-0.772-2.1568-1.8052-2.5027
				c-0.9886-0.331-1.651-1.2567-1.5353-2.2927v0c0.0913-0.8171,0.7755-1.4519,1.5978-1.4536c0.0051,0,0.0104,0,0.0155,0
				c3.2257,0,4.8403,2.8212,6.2228,6.5375l4.7953,12.8782c0.2433,0.6534-0.24,1.349-0.9373,1.349h-2.4755
				c-0.4441,0-0.8351-0.293-0.9597-0.7194l-1.587-4.1716c-0.3274-0.8608-1.5459-0.8587-1.8705,0.0032l-1.5686,4.1657
				C-1165.7013-149.912-1166.0929-149.6177-1166.5381-149.6177z"/>
		</g>
		<g display="none">
			<path display="inline" fill="none" stroke="#D36363" stroke-width="3" stroke-linecap="round" stroke-miterlimit="10" d="
				M-1180.1866-151.311c0.9608-0.9608,2.2201-1.4412,3.4794-1.4412c1.2593,0,2.5187,0.4804,3.4795,1.4412"/>
			<path display="inline" fill="none" stroke="#D36363" stroke-width="3" stroke-linecap="round" stroke-miterlimit="10" d="
				M-1159.3102-151.311c-0.9608-0.9608-2.2201-1.4412-3.4794-1.4412c-1.2593,0-2.5187,0.4804-3.4795,1.4412"/>
			<path display="inline" fill="none" stroke="#D36363" stroke-width="3" stroke-linecap="round" stroke-miterlimit="10" d="
				M-1166.269-151.311c-0.9608,0.9608-2.2201,1.4412-3.4794,1.4412s-2.5186-0.4804-3.4794-1.4412"/>
			<path display="inline" fill="none" stroke="#D36363" stroke-width="3" stroke-linecap="round" stroke-miterlimit="10" d="
				M-1159.3102-151.311c0.9608,0.9608,2.2201,1.4412,3.4792,1.4412c1.2594,0,2.5188-0.4804,3.4796-1.4412"/>
		</g>
		<circle fill="none" cx="-1163" cy="-160" r="23.75"/>
		<text transform="matrix(0.5856 -0.8106 0.8106 0.5856 -1183.686 -171.9259)"><tspan x="0" y="0" fill="#D36363" font-family="'Effra-Bold'" font-size="8">R</tspan><tspan x="5.7878" y="0.2109" fill="#D36363" font-family="'Effra-Bold'" font-size="8" rotate="10.7739">I</tspan><tspan x="9.017" y="0.765" fill="#D36363" font-family="'Effra-Bold'" font-size="8" rotate="22.4372">C</tspan><tspan x="15.0237" y="3.39" fill="#D36363" font-family="'Effra-Bold'" font-size="8" rotate="38.6518">H</tspan><tspan x="20.37" y="7.8439" fill="#D36363" font-family="'Effra-Bold'" font-size="8" rotate="56.0579">M</tspan><tspan x="24.4027" y="14.1649" fill="#D36363" font-family="'Effra-Bold'" font-size="8" rotate="73.8195">O</tspan><tspan x="26.2396" y="21.2405" fill="#D36363" font-family="'Effra-Bold'" font-size="8" rotate="90.8573">N</tspan><tspan x="25.9777" y="28.0657" fill="#D36363" font-family="'Effra-Bold'" font-size="8" rotate="107.2328">D</tspan></text>
		<circle fill="none" cx="-1163" cy="-160" r="23.75"/>
		<text transform="matrix(0.1728 0.985 -0.985 0.1728 -1192.1499 -157.6246)"><tspan x="0" y="0" fill="#D36363" font-family="'Effra-Bold'" font-size="8">C</tspan><tspan x="7.4737" y="-0.226" fill="#D36363" font-family="'Effra-Bold'" font-size="8" rotate="-15.4735">O</tspan><tspan x="15.4716" y="-2.7598" fill="#D36363" font-family="'Effra-Bold'" font-size="8" rotate="-32.1498">M</tspan><tspan x="22.4802" y="-7.6321" fill="#D36363" font-family="'Effra-Bold'" font-size="8" rotate="-47.1278">P</tspan><tspan x="26.7483" y="-12.4754" fill="#D36363" font-family="'Effra-Bold'" font-size="8" rotate="-60.6483">U</tspan><tspan x="30.1329" y="-19.0456" fill="#D36363" font-family="'Effra-Bold'" font-size="8" rotate="-74.7965">T</tspan><tspan x="31.7037" y="-25.6895" fill="#D36363" font-family="'Effra-Bold'" font-size="8" rotate="-87.749">E</tspan><tspan x="31.7471" y="-32.3134" fill="#D36363" font-family="'Effra-Bold'" font-size="8" rotate="-101.0445">R</tspan><tspan x="30.3178" y="-38.3785" fill="#D36363" font-family="'Effra-Bold'" font-size="8" rotate="-109.9948"> </tspan><tspan x="29.37" y="-41.1172" fill="#D36363" font-family="'Effra-Bold'" font-size="8" rotate="-119.5852">C</tspan><tspan x="25.4764" y="-47.3944" fill="#D36363" font-family="'Effra-Bold'" font-size="8" rotate="-133.0897">L</tspan><tspan x="21.076" y="-51.8753" fill="#D36363" font-family="'Effra-Bold'" font-size="8" rotate="-146.3808">U</tspan><tspan x="14.6507" y="-55.7927" fill="#D36363" font-family="'Effra-Bold'" font-size="8" rotate="-160.7338">B</tspan></text>
		<circle fill="none" stroke="#D36363" stroke-miterlimit="10" cx="-1137.9385" cy="-165.751" r="1.5"/>
		<circle fill="none" stroke="#D36363" stroke-miterlimit="10" cx="-1188.0615" cy="-165.751" r="1.5"/>
		<g>
			
				<line fill="none" stroke="#D36363" stroke-width="6" stroke-miterlimit="10" x1="-1173" y1="-177.3205" x2="-1153" y2="-142.6795"/>
			<line fill="none" stroke="#D36363" stroke-width="6" stroke-miterlimit="10" x1="-1163" y1="-160" x2="-1173" y2="-142.6795"/>
		</g>
		<g>
			<path fill="#F2F0F0" d="M-1163-174.6667c8.0873,0,14.6667,6.5794,14.6667,14.6667s-6.5795,14.6667-14.6667,14.6667
				s-14.6667-6.5794-14.6667-14.6667S-1171.0873-174.6667-1163-174.6667 M-1163-181.6667c-11.9662,0-21.6667,9.7005-21.6667,21.6667
				s9.7006,21.6667,21.6667,21.6667s21.6667-9.7005,21.6667-21.6667S-1151.0338-181.6667-1163-181.6667L-1163-181.6667z"/>
		</g>
		<g>
			<path fill="#D36363" d="M-1163-176.6667c9.1901,0,16.6666,7.4766,16.6666,16.6667s-7.4766,16.6667-16.6666,16.6667
				s-16.6666-7.4766-16.6666-16.6667S-1172.1901-176.6667-1163-176.6667 M-1163-181.6667c-11.9662,0-21.6666,9.7005-21.6666,21.6667
				s9.7004,21.6667,21.6666,21.6667s21.6666-9.7005,21.6666-21.6667S-1151.0338-181.6667-1163-181.6667L-1163-181.6667z"/>
		</g>
	</g>
</g>
<g id="Layer_1">
	<rect x="-1360" y="-220.043" fill="#F2F0F0" width="1040" height="815.6328"/>
	<rect x="-1190" y="-5" fill="none" width="700" height="594"/>
	<text transform="matrix(1 0 0 1 -1164.9932 11.0078)"><tspan x="0" y="0" fill="#353535" font-family="'Effra-Light'" font-size="24">Li</tspan><tspan x="17.6885" y="0" fill="#353535" font-family="'Effra-Light'" font-size="24">k</tspan><tspan x="28.3438" y="0" fill="#353535" font-family="'Effra-Light'" font-size="24">e a book clu</tspan><tspan x="147.3086" y="0" fill="#353535" font-family="'Effra-Light'" font-size="24">b</tspan><tspan x="159.9336" y="0" fill="#353535" font-family="'Effra-Light'" font-size="24">, but </tspan><tspan x="208.6523" y="0" fill="#353535" font-family="'Effra-Light'" font-size="24">f</tspan><tspan x="215.8525" y="0" fill="#353535" font-family="'Effra-Light'" font-size="24">or </tspan><tspan x="242.2285" y="0" fill="#353535" font-family="'Effra-Light'" font-size="24">c</tspan><tspan x="253.5557" y="0" fill="#353535" font-family="'Effra-Light'" font-size="24">ode. </tspan><tspan x="303.0664" y="0" fill="#353535" font-family="'Effra-Light'" font-size="24">W</tspan><tspan x="323.2031" y="0" fill="#353535" font-family="'Effra-Light'" font-size="24">e meet </tspan><tspan x="400.0254" y="0" fill="#353535" font-family="'Effra-Light'" font-size="24">w</tspan><tspan x="416.1064" y="0" fill="#353535" font-family="'Effra-Light'" font-size="24">eek</tspan><tspan x="452.9951" y="0" fill="#353535" font-family="'Effra-Light'" font-size="24">l</tspan><tspan x="457.0273" y="0" fill="#353535" font-family="'Effra-Light'" font-size="24">y </tspan><tspan x="472.6982" y="0" fill="#353535" font-family="'Effra-Light'" font-size="24">t</tspan><tspan x="480.7373" y="0" fill="#353535" font-family="'Effra-Light'" font-size="24">o </tspan><tspan x="498.9053" y="0" fill="#353535" font-family="'Effra-Light'" font-size="24">w</tspan><tspan x="514.9863" y="0" fill="#353535" font-family="'Effra-Light'" font-size="24">ork th</tspan><tspan x="573.9043" y="0" fill="#353535" font-family="'Effra-Light'" font-size="24">r</tspan><tspan x="581.3926" y="0" fill="#353535" font-family="'Effra-Light'" font-size="24">ough a </tspan><tspan x="-7.4277" y="48" fill="#353535" font-family="'Effra-Light'" font-size="24">p</tspan><tspan x="5.6045" y="48" fill="#353535" font-family="'Effra-Light'" font-size="24">r</tspan><tspan x="13.0928" y="48" fill="#353535" font-family="'Effra-Light'" font-size="24">oject </tspan><tspan x="69.4434" y="48" fill="#353535" font-family="'Effra-Light'" font-size="24">t</tspan><tspan x="77.4834" y="48" fill="#353535" font-family="'Effra-Light'" font-size="24">ogethe</tspan><tspan x="151.5215" y="48" fill="#353535" font-family="'Effra-Light'" font-size="24" letter-spacing="-2">r</tspan><tspan x="157.0908" y="48" fill="#353535" font-family="'Effra-Light'" font-size="24">. If </tspan><tspan x="184.4717" y="48" fill="#353535" font-family="'Effra-Light'" font-size="24">y</tspan><tspan x="194.96" y="48" fill="#353535" font-family="'Effra-Light'" font-size="24">ou a</tspan><tspan x="237.8477" y="48" fill="#353535" font-family="'Effra-Light'" font-size="24">r</tspan><tspan x="245.3359" y="48" fill="#353535" font-family="'Effra-Light'" font-size="24">e n</tspan><tspan x="275.6719" y="48" fill="#353535" font-family="'Effra-Light'" font-size="24">e</tspan><tspan x="288.3203" y="48" fill="#353535" font-family="'Effra-Light'" font-size="24">w </tspan><tspan x="309.2246" y="48" fill="#353535" font-family="'Effra-Light'" font-size="24">t</tspan><tspan x="317.2646" y="48" fill="#353535" font-family="'Effra-Light'" font-size="24">o the subject ma</tspan><tspan x="486.3652" y="48" fill="#353535" font-family="'Effra-Light'" font-size="24">t</tspan><tspan x="494.6445" y="48" fill="#353535" font-family="'Effra-Light'" font-size="24">t</tspan><tspan x="502.6846" y="48" fill="#353535" font-family="'Effra-Light'" font-size="24">e</tspan><tspan x="515.6201" y="48" fill="#353535" font-family="'Effra-Light'" font-size="24" letter-spacing="-2">r</tspan><tspan x="521.1885" y="48" fill="#353535" font-family="'Effra-Light'" font-size="24">, </tspan><tspan x="531.0273" y="48" fill="#353535" font-family="'Effra-Light'" font-size="24">y</tspan><tspan x="541.5156" y="48" fill="#353535" font-family="'Effra-Light'" font-size="24">ou will learn </tspan><tspan x="-15.8389" y="96" fill="#353535" font-family="'Effra-Light'" font-size="24">f</tspan><tspan x="-8.1592" y="96" fill="#353535" font-family="'Effra-Light'" font-size="24">r</tspan><tspan x="-0.6709" y="96" fill="#353535" font-family="'Effra-Light'" font-size="24">om </tspan><tspan x="37.9434" y="96" fill="#353535" font-family="'Effra-Light'" font-size="24">o</tspan><tspan x="51.5273" y="96" fill="#353535" font-family="'Effra-Light'" font-size="24">the</tspan><tspan x="85.9912" y="96" fill="#353535" font-family="'Effra-Light'" font-size="24">r</tspan><tspan x="93.5996" y="96" fill="#353535" font-family="'Effra-Light'" font-size="24">s eager </tspan><tspan x="172.6787" y="96" fill="#353535" font-family="'Effra-Light'" font-size="24">t</tspan><tspan x="180.7188" y="96" fill="#353535" font-family="'Effra-Light'" font-size="24">o </tspan><tspan x="198.8857" y="96" fill="#353535" font-family="'Effra-Light'" font-size="24">t</tspan><tspan x="206.9248" y="96" fill="#353535" font-family="'Effra-Light'" font-size="24">each; and if </tspan><tspan x="325.627" y="96" fill="#353535" font-family="'Effra-Light'" font-size="24">y</tspan><tspan x="336.1152" y="96" fill="#353535" font-family="'Effra-Light'" font-size="24">ou a</tspan><tspan x="379.002" y="96" fill="#353535" font-family="'Effra-Light'" font-size="24">r</tspan><tspan x="386.4902" y="96" fill="#353535" font-family="'Effra-Light'" font-size="24">e </tspan><tspan x="403.8906" y="96" fill="#353535" font-family="'Effra-Light'" font-size="24">e</tspan><tspan x="416.5869" y="96" fill="#353535" font-family="'Effra-Light'" font-size="24">xperien</tspan><tspan x="492.3076" y="96" fill="#353535" font-family="'Effra-Light'" font-size="24">c</tspan><tspan x="503.6357" y="96" fill="#353535" font-family="'Effra-Light'" font-size="24">ed, </tspan><tspan x="539.4424" y="96" fill="#353535" font-family="'Effra-Light'" font-size="24">y</tspan><tspan x="549.9307" y="96" fill="#353535" font-family="'Effra-Light'" font-size="24">ou will learn </tspan><tspan x="-11.459" y="144" fill="#353535" font-family="'Effra-Light'" font-size="24">f</tspan><tspan x="-3.7793" y="144" fill="#353535" font-family="'Effra-Light'" font-size="24">r</tspan><tspan x="3.709" y="144" fill="#353535" font-family="'Effra-Light'" font-size="24">om helping and </tspan><tspan x="162.9951" y="144" fill="#353535" font-family="'Effra-Light'" font-size="24">t</tspan><tspan x="171.0342" y="144" fill="#353535" font-family="'Effra-Light'" font-size="24">eaching. If </tspan><tspan x="278.6494" y="144" fill="#353535" font-family="'Effra-Light'" font-size="24">y</tspan><tspan x="289.1367" y="144" fill="#353535" font-family="'Effra-Light'" font-size="24">ou h</tspan><tspan x="332.9844" y="144" fill="#353535" font-family="'Effra-Light'" font-size="24">a</tspan><tspan x="344.4326" y="144" fill="#353535" font-family="'Effra-Light'" font-size="24">v</tspan><tspan x="354.9453" y="144" fill="#353535" font-family="'Effra-Light'" font-size="24">e a thi</tspan><tspan x="414.8711" y="144" fill="#353535" font-family="'Effra-Light'" font-size="24">r</tspan><tspan x="422.4795" y="144" fill="#353535" font-family="'Effra-Light'" font-size="24">st </tspan><tspan x="446.79" y="144" fill="#353535" font-family="'Effra-Light'" font-size="24">f</tspan><tspan x="453.9893" y="144" fill="#353535" font-family="'Effra-Light'" font-size="24">or learning and good </tspan><tspan x="174.8867" y="192" fill="#353535" font-family="'Effra-Light'" font-size="24">bee</tspan><tspan x="213.7441" y="192" fill="#353535" font-family="'Effra-Light'" font-size="24" letter-spacing="-2">r</tspan><tspan x="219.3125" y="192" fill="#353535" font-family="'Effra-Light'" font-size="24">, this is whe</tspan><tspan x="333.5029" y="192" fill="#353535" font-family="'Effra-Light'" font-size="24">r</tspan><tspan x="340.9912" y="192" fill="#353535" font-family="'Effra-Light'" font-size="24">e </tspan><tspan x="358.3916" y="192" fill="#353535" font-family="'Effra-Light'" font-size="24">y</tspan><tspan x="368.8779" y="192" fill="#353535" font-family="'Effra-Light'" font-size="24">ou belong.</tspan></text>
	<g display="none">
		<text transform="matrix(1 0 0 1 -1189.7156 -107.0002)" display="inline"><tspan x="0" y="0" fill="#D36363" font-family="'Effra-Bold'" font-size="18" letter-spacing="1">R</tspan><tspan x="12.3389" y="0" fill="#D36363" font-family="'Effra-Bold'" font-size="18" letter-spacing="1">I</tspan><tspan x="18.8745" y="0" fill="#D36363" font-family="'Effra-Bold'" font-size="18" letter-spacing="1">C</tspan><tspan x="32.5386" y="0" fill="#D36363" font-family="'Effra-Bold'" font-size="18" letter-spacing="1">H</tspan><tspan x="47.0532" y="0" fill="#D36363" font-family="'Effra-Bold'" font-size="18" letter-spacing="1">M</tspan><tspan x="62.8394" y="0" fill="#D36363" font-family="'Effra-Bold'" font-size="18" letter-spacing="1">O</tspan><tspan x="78.1626" y="0" fill="#D36363" font-family="'Effra-Bold'" font-size="18" letter-spacing="1">N</tspan><tspan x="92.5244" y="0" fill="#D36363" font-family="'Effra-Bold'" font-size="18" letter-spacing="1">D </tspan><tspan x="111.3882" y="0" fill="#D36363" font-family="'Effra-Bold'" font-size="18" letter-spacing="1">C</tspan><tspan x="124.7876" y="0" fill="#D36363" font-family="'Effra-Bold'" font-size="18" letter-spacing="1">O</tspan><tspan x="140.0513" y="0" fill="#D36363" font-family="'Effra-Bold'" font-size="18" letter-spacing="1">M</tspan><tspan x="156.0156" y="0" fill="#D36363" font-family="'Effra-Bold'" font-size="18" letter-spacing="1">P</tspan><tspan x="167.5713" y="0" fill="#D36363" font-family="'Effra-Bold'" font-size="18" letter-spacing="1">U</tspan><tspan x="181.0908" y="0" fill="#D36363" font-family="'Effra-Bold'" font-size="18" letter-spacing="1">T</tspan><tspan x="193.5825" y="0" fill="#D36363" font-family="'Effra-Bold'" font-size="18" letter-spacing="1">E</tspan><tspan x="205.5386" y="0" fill="#D36363" font-family="'Effra-Bold'" font-size="18" letter-spacing="1">R </tspan><tspan x="222.4224" y="0" fill="#D36363" font-family="'Effra-Bold'" font-size="18" letter-spacing="1">C</tspan><tspan x="236.0864" y="0" fill="#D36363" font-family="'Effra-Bold'" font-size="18" letter-spacing="1">L</tspan><tspan x="247.2534" y="0" fill="#D36363" font-family="'Effra-Bold'" font-size="18" letter-spacing="1">U</tspan><tspan x="261.0513" y="0" fill="#D36363" font-family="'Effra-Bold'" font-size="18" letter-spacing="1">B</tspan></text>
	</g>
	<g>
		<g display="none">
			<path display="inline" fill="#D36363" d="M-846.0735-94.6248h-4.027c-1.2024,0-2.0323-1.2041-1.6044-2.3278
				c0,0,6.8818-14.6,7.5681-19.8715c0.133-1.0218-0.0455-2.2766-0.1027-2.7206c-0.3081-2.3939-1.3254-3.7027-3.0992-4.2965
				c-1.6972-0.5682-2.8344-2.1574-2.6357-3.9361v0c0.1567-1.4028,1.3315-2.4925,2.743-2.4956c0.0089,0,0.0178,0,0.0267,0
				c5.5377,0,8.3096,4.8433,10.6829,11.2234l8.2324,22.1088c0.4177,1.1217-0.4119,2.3158-1.6088,2.3158h-4.2498
				c-0.7626,0-1.4338-0.5031-1.6478-1.235l-2.7245-7.1616c-0.5622-1.4778-2.6541-1.4743-3.2112,0.0054l-2.6929,7.1516
				C-844.6368-95.1302-845.3091-94.6248-846.0735-94.6248z"/>
		</g>
		<g display="none">
			<path display="inline" fill="none" stroke="#D36363" stroke-width="3" stroke-linecap="round" stroke-miterlimit="10" d="
				M-869.5049-97.5319c1.6495-1.6495,3.8113-2.4742,5.9733-2.4742s4.3239,0.8247,5.9734,2.4742"/>
			<path display="inline" fill="none" stroke="#D36363" stroke-width="3" stroke-linecap="round" stroke-miterlimit="10" d="
				M-833.6648-97.5319c-1.6495-1.6495-3.8114-2.4742-5.9733-2.4742c-2.1619,0-4.3239,0.8247-5.9734,2.4742"/>
			<path display="inline" fill="none" stroke="#D36363" stroke-width="3" stroke-linecap="round" stroke-miterlimit="10" d="
				M-845.6115-97.5319c-1.6495,1.6495-3.8114,2.4742-5.9733,2.4742s-4.3239-0.8247-5.9733-2.4742"/>
			<path display="inline" fill="none" stroke="#D36363" stroke-width="3" stroke-linecap="round" stroke-miterlimit="10" d="
				M-833.6648-97.5319c1.6494,1.6494,3.8113,2.4742,5.9731,2.4742c2.162,0.0001,4.324-0.8247,5.9735-2.4742"/>
		</g>
		<g>
			<path fill="#D36363" d="M-882.4156-139.0118l1.9951-2.7596c0.3118-0.4309,0.6454-0.7662,1.0042-1.0042
				c0.3571-0.2381,0.7226-0.389,1.0914-0.456c0.3688-0.0654,0.7343-0.0503,1.0948,0.0453s0.6991,0.2599,1.0176,0.4895
				c0.4828,0.3487,0.8282,0.7595,1.0344,1.2306c0.2079,0.4711,0.28,0.9791,0.2163,1.5189l4.1611,0.4996l-1.3345,1.8492
				l-3.7252-0.5901l-0.674,0.9355l2.7261,1.9699l-1.1803,1.6363L-882.4156-139.0118z M-877.1345-139.2616
				c0.2246-0.3118,0.3101-0.6237,0.2531-0.9372c-0.057-0.3118-0.2263-0.57-0.508-0.7729c-0.3051-0.2196-0.6102-0.3051-0.9171-0.2565
				c-0.3068,0.0503-0.5734,0.2314-0.798,0.5432l-0.7477,1.0344l1.9699,1.4234L-877.1345-139.2616z"/>
			<path fill="#D36363" d="M-875.0422-148.0366l1.5072-1.4234l6.292,6.6575l-1.5089,1.425L-875.0422-148.0366z"/>
			<path fill="#D36363" d="M-858.4781-150.9537c-0.0235,0.3269-0.0906,0.6622-0.2012,1.0042
				c-0.1123,0.3437-0.2649,0.6773-0.456,1.0009c-0.1945,0.3236-0.4292,0.6304-0.7075,0.9204
				c-0.2783,0.2901-0.5968,0.5466-0.9539,0.7679c-0.5918,0.3655-1.1954,0.5985-1.8123,0.6991
				c-0.6153,0.1006-1.2138,0.0805-1.7905-0.0637c-0.5784-0.1425-1.1166-0.4024-1.6179-0.7762s-0.9338-0.8567-1.2993-1.4485
				c-0.3554-0.5767-0.5935-1.1769-0.7075-1.7989c-0.1174-0.6237-0.1107-1.2289,0.0134-1.8174
				c0.1274-0.5901,0.3705-1.1434,0.7343-1.6631c0.3621-0.5197,0.8416-0.9657,1.4418-1.3362
				c0.7242-0.4476,1.4385-0.7058,2.1443-0.7762c0.7058-0.0687,1.3898,0.0335,2.0571,0.3118l-0.4895,1.8995
				c-0.4359-0.1827-0.8752-0.2749-1.3161-0.2766c-0.4426,0-0.8852,0.1358-1.3295,0.4108c-0.3504,0.2163-0.627,0.4761-0.8282,0.7779
				c-0.2012,0.3018-0.3286,0.6253-0.3822,0.9707c-0.057,0.347-0.0436,0.7025,0.0369,1.0679
				c0.0804,0.3638,0.2247,0.7142,0.4292,1.0495c0.2129,0.342,0.4627,0.6287,0.7511,0.8601
				c0.2883,0.2314,0.5968,0.3957,0.9254,0.4929c0.3303,0.0972,0.6706,0.1257,1.0193,0.0805
				c0.3487-0.0436,0.6957-0.171,1.0394-0.3823c0.28-0.1743,0.5046-0.3537,0.6757-0.5398c0.1693-0.1861,0.3051-0.3772,0.4041-0.5734
				c0.1006-0.1945,0.171-0.3957,0.2179-0.6019c0.0436-0.2045,0.0839-0.4108,0.1207-0.6153L-858.4781-150.9537z"/>
			<path fill="#D36363" d="M-857.2777-159.4873l1.9984-0.5533l0.9388,3.3866l3.8259-1.0596l-0.9388-3.3883l1.9984-0.5549
				l2.4478,8.8286l-1.9985,0.5533l-1.0059-3.6263l-3.8258,1.0612l1.0059,3.6263l-1.9984,0.5533L-857.2777-159.4873z"/>
			<path fill="#D36363" d="M-842.645-162.5l1.9615,0.0654l2.2465,4.3757l2.4763-4.2182l1.9766,0.0654l0.1207,9.1706l-2.0722-0.0687
				l-0.062-5.9936l-2.0135,3.5056l-1.0696-0.0352l-1.8878-3.5945l-0.4308,5.9349l-1.9766-0.0654L-842.645-162.5z"/>
			<path fill="#D36363" d="M-826.3524-150.6352c-0.6371-0.228-1.1887-0.5566-1.6531-0.9841
				c-0.4644-0.4292-0.8248-0.9171-1.0797-1.4653c-0.2582-0.5499-0.399-1.1417-0.4292-1.7805
				c-0.0302-0.6371,0.0688-1.2758,0.2968-1.9129c0.2314-0.6471,0.56-1.2054,0.9858-1.6749
				c0.4241-0.4711,0.9103-0.8366,1.4569-1.0981c0.5465-0.2632,1.1333-0.4124,1.7637-0.4493
				c0.6321-0.0369,1.2658,0.0587,1.9045,0.2867c0.6371,0.228,1.1887,0.5566,1.6531,0.9841
				c0.4644,0.4292,0.8248,0.9171,1.0797,1.4653c0.2582,0.5499,0.4007,1.14,0.4326,1.7738c0.0302,0.6337-0.0704,1.2742-0.3001,1.9196
				c-0.228,0.6388-0.5549,1.1954-0.9841,1.6698c-0.4258,0.4745-0.912,0.8416-1.4586,1.1031
				c-0.5465,0.2632-1.1333,0.4124-1.7637,0.4493C-825.08-150.3116-825.7137-150.4072-826.3524-150.6352z M-825.6953-152.471
				c0.3789,0.1358,0.7444,0.1844,1.0998,0.1442c0.3538-0.0386,0.6807-0.1442,0.9825-0.3185
				c0.3001-0.1744,0.565-0.4057,0.7947-0.6941c0.228-0.2867,0.4091-0.617,0.5432-0.9875c0.1308-0.3705,0.2012-0.7393,0.2046-1.1065
				c0.0067-0.3688-0.0536-0.7125-0.1777-1.0344c-0.1224-0.3202-0.3085-0.6069-0.5599-0.8567
				c-0.2515-0.2498-0.5667-0.4426-0.9456-0.5784c-0.3788-0.1358-0.7477-0.1878-1.1048-0.1542
				c-0.3571,0.0335-0.6857,0.1341-0.9841,0.3051c-0.2984,0.1693-0.5633,0.399-0.7913,0.6857
				c-0.2314,0.2884-0.4108,0.617-0.5432,0.9875s-0.2012,0.741-0.2062,1.1082c-0.0051,0.3672,0.0519,0.7142,0.176,1.0394
				c0.1207,0.3253,0.3085,0.617,0.5633,0.8718C-826.3927-152.8029-826.0742-152.6068-825.6953-152.471z"/>
			<path fill="#D36363" d="M-813.3828-154.8919l1.586,1.182l-0.3722,7.1403l3.5543-4.7681l1.6396,1.2222l-5.4739,7.3449
				l-1.5089-1.1249l0.3604-7.2845l-3.6196,4.8552l-1.6413-1.2222L-813.3828-154.8919z"/>
			<path fill="#D36363" d="M-802.4786-145.6442l2.0789,2.7679c0.4242,0.5633,0.7427,1.14,0.9556,1.7302
				c0.2146,0.5885,0.3018,1.1702,0.2632,1.7436c-0.0386,0.5734-0.2196,1.1317-0.5415,1.6782
				c-0.3236,0.5466-0.8031,1.0579-1.4402,1.5374c-0.6086,0.456-1.2104,0.7544-1.809,0.8953
				c-0.6002,0.1408-1.1803,0.1509-1.7469,0.0319c-0.5633-0.119-1.1031-0.3621-1.6128-0.7293
				c-0.5097-0.3672-0.9758-0.8316-1.3999-1.3965l-2.0706-2.7562L-802.4786-145.6442z M-806.3263-138.5776
				c0.5499,0.731,1.1652,1.1501,1.8475,1.2574c0.6807,0.1056,1.358-0.0939,2.032-0.5985c0.337-0.2532,0.6086-0.5298,0.8131-0.8265
				c0.2062-0.2984,0.3353-0.6136,0.3889-0.9456s0.0269-0.6807-0.0804-1.0461c-0.1089-0.3655-0.3118-0.7461-0.6086-1.1417
				l-0.7595-1.0093l-4.3925,3.2994L-806.3263-138.5776z"/>
		</g>
		<g>
			<path fill="#D36363" d="M-886.7964-99.6402c-0.295-0.1425-0.5817-0.3303-0.8584-0.56c-0.2766-0.2314-0.5314-0.4946-0.7595-0.7947
				c-0.2297-0.2984-0.4275-0.632-0.5935-0.9975c-0.1676-0.3655-0.285-0.7561-0.3588-1.1702
				c-0.1207-0.6857-0.114-1.3328,0.0218-1.9431c0.1358-0.6086,0.3755-1.1551,0.7226-1.6396
				c0.3487-0.4845,0.788-0.8886,1.3211-1.2138c0.5331-0.3269,1.1434-0.5499,1.8274-0.6689c0.6673-0.1174,1.3127-0.114,1.9348,0.0084
				c0.6203,0.1241,1.1803,0.3537,1.6816,0.689c0.4996,0.3353,0.9238,0.7662,1.2725,1.296s0.5834,1.14,0.7058,1.8358
				c0.1459,0.8383,0.1224,1.5977-0.0754,2.2784c-0.1945,0.6807-0.5466,1.2792-1.0495,1.7956l-1.5844-1.1585
				c0.3303-0.337,0.5784-0.7109,0.7444-1.1216c0.166-0.4091,0.2029-0.8718,0.1124-1.3865
				c-0.0704-0.4057-0.2096-0.7578-0.4158-1.0562c-0.2046-0.2984-0.4594-0.5382-0.7595-0.7176
				c-0.3018-0.1794-0.6354-0.2984-1.0042-0.3605c-0.3688-0.0603-0.7477-0.057-1.135,0.0117
				c-0.3973,0.0687-0.7561,0.1945-1.078,0.3772c-0.3219,0.1811-0.5868,0.4074-0.8014,0.6773
				c-0.213,0.2699-0.3638,0.5751-0.4526,0.9154c-0.0889,0.3403-0.0973,0.7092-0.0285,1.1065
				c0.0569,0.3252,0.1391,0.6002,0.2498,0.8282c0.109,0.2263,0.2364,0.4225,0.3823,0.5885
				c0.1442,0.1643,0.3051,0.3068,0.4795,0.4242c0.1727,0.119,0.3487,0.2314,0.5264,0.3403L-886.7964-99.6402z"/>
			<path fill="#D36363" d="M-885.3797-90.9122c-0.2917-0.6119-0.4493-1.2323-0.4761-1.8643
				c-0.0269-0.6304,0.0637-1.2306,0.2699-1.8006c0.2062-0.5683,0.5231-1.0897,0.954-1.5625
				c0.4291-0.4728,0.9489-0.855,1.5609-1.1451c0.6203-0.2951,1.2456-0.4594,1.8793-0.4912s1.2373,0.052,1.8073,0.2515
				c0.5734,0.1995,1.0931,0.508,1.5676,0.9271c0.4728,0.4191,0.8533,0.9355,1.1451,1.5474
				c0.2917,0.6119,0.4493,1.2339,0.4761,1.8643c0.0268,0.632-0.0637,1.2322-0.2699,1.8006c-0.2062,0.57-0.5214,1.0897-0.9473,1.5609
				c-0.4242,0.4694-0.9456,0.8534-1.5659,1.1484c-0.6136,0.29-1.2373,0.4527-1.8744,0.4879
				c-0.6387,0.0335-1.244-0.0486-1.814-0.2498c-0.5717-0.1995-1.0931-0.508-1.5659-0.9271
				C-884.7057-89.7839-885.088-90.3002-885.3797-90.9122z M-883.6177-91.7487c0.1727,0.3638,0.3973,0.6572,0.6757,0.8802
				c0.2783,0.223,0.5867,0.3772,0.9221,0.4661c0.3353,0.0889,0.6874,0.1123,1.0529,0.0704
				c0.3655-0.0419,0.7242-0.1475,1.0797-0.3169c0.3554-0.1677,0.6656-0.3806,0.9288-0.6388
				c0.2632-0.2565,0.4644-0.5415,0.6036-0.8567c0.1408-0.3152,0.2079-0.6488,0.2079-1.0026c0-0.3554-0.0872-0.7142-0.2615-1.078
				c-0.1727-0.3638-0.3973-0.6606-0.674-0.8886c-0.275-0.2297-0.5801-0.389-0.912-0.4795c-0.332-0.0905-0.6807-0.114-1.0445-0.0721
				c-0.3655,0.0419-0.726,0.1475-1.0814,0.3152c-0.3554,0.1693-0.6656,0.3823-0.9288,0.6388
				c-0.2632,0.2582-0.4661,0.5449-0.6103,0.8601c-0.1442,0.3169-0.2146,0.6555-0.2162,1.016
				C-883.8776-92.4747-883.7903-92.1126-883.6177-91.7487z"/>
			<path fill="#D36363" d="M-873.2081-88.3052l1.3177,1.4586l-1.5893,4.654l4.7546-1.1484l1.3278,1.467l-6.5116,6.4563
				l-1.3915-1.5374l4.2684-4.2081l-3.9197,0.9875l-0.7175-0.7947l1.2742-3.8543l-4.5703,3.8124l-1.3245-1.467L-873.2081-88.3052z"/>
			<path fill="#D36363" d="M-864.7433-79.8253l2.8015,1.814c0.4761,0.3085,0.8383,0.6404,1.0881,0.9992
				c0.2481,0.3571,0.4091,0.7192,0.4811,1.0881c0.0721,0.3688,0.0637,0.736-0.0268,1.1032
				c-0.0905,0.3672-0.2414,0.7125-0.4493,1.0344c-0.2682,0.4158-0.575,0.7326-0.9187,0.9523
				c-0.3437,0.2179-0.7042,0.3537-1.0797,0.404c-0.3772,0.0503-0.7578,0.0285-1.1434-0.0687
				c-0.3839-0.0956-0.7494-0.2565-1.0948-0.4795l-1.1887-0.7695l-1.7537,2.7093l-1.6933-1.0965L-864.7433-79.8253z
				 M-864.3477-74.4973c0.3236,0.2096,0.6422,0.2766,0.9573,0.2029s0.5734-0.2682,0.7779-0.5851
				c0.2095-0.3219,0.2833-0.6471,0.2247-0.9757c-0.0604-0.3269-0.2532-0.5968-0.5767-0.8047l-1.0026-0.6505l-1.3948,2.156
				L-864.3477-74.4973z"/>
			<path fill="#D36363" d="M-857.1939-75.2081l1.9683,0.6941l-1.8022,5.1168c-0.1006,0.285-0.1627,0.5516-0.1878,0.7997
				c-0.0251,0.2498-0.0016,0.4795,0.0721,0.6891c0.0704,0.2096,0.1962,0.3957,0.3755,0.5616
				c0.1811,0.1643,0.4258,0.3018,0.736,0.4124c0.3035,0.1056,0.575,0.1509,0.8198,0.1358c0.2414-0.0168,0.4594-0.0838,0.6454-0.2029
				s0.3504-0.2817,0.4862-0.4912s0.2548-0.456,0.3554-0.741l1.8023-5.1168l1.9816,0.6974l-1.8878,5.3632
				c-0.1827,0.5181-0.4359,0.964-0.7545,1.3362c-0.3219,0.3722-0.6941,0.6572-1.1166,0.8517
				c-0.4225,0.1962-0.8885,0.3018-1.3982,0.3152c-0.5114,0.0151-1.0428-0.0754-1.5961-0.2699
				c-0.5516-0.1945-1.0227-0.4543-1.4116-0.7813c-0.3907-0.3269-0.6874-0.7008-0.8953-1.1233
				c-0.2045-0.4225-0.3152-0.8785-0.3319-1.3697c-0.0168-0.4912,0.0671-0.9959,0.2481-1.5139L-857.1939-75.2081z"/>
			<path fill="#D36363" d="M-844.9888-70.0712l-2.954-0.2716l0.1677-1.819l7.9736,0.7326l-0.1677,1.819l-2.9406-0.2699
				l-0.6706,7.303l-2.0789-0.1911L-844.9888-70.0712z"/>
			<path fill="#D36363" d="M-837.5416-71.5784l6.2065-0.8383l0.2414,1.7956l-4.1511,0.5616l0.238,1.7687l3.2256-0.4359
				l0.2364,1.7419l-3.2256,0.4376l0.2649,1.9599l4.4512-0.6019l0.2448,1.809L-836.316-62.5L-837.5416-71.5784z"/>
			<path fill="#D36363" d="M-828.4347-73.1443l3.1787-1.2205c0.4962-0.1894,0.959-0.2867,1.3898-0.29
				c0.4308-0.0033,0.8182,0.0687,1.1652,0.2163c0.3453,0.1459,0.6404,0.3588,0.8902,0.6354
				c0.2481,0.2783,0.4443,0.6002,0.5851,0.9674c0.2129,0.5566,0.2766,1.0881,0.1911,1.5961
				c-0.0838,0.508-0.3001,0.9707-0.6505,1.3898l3.2122,2.6959l-2.1292,0.8165l-2.7948-2.5316l-1.078,0.4124l1.2071,3.1418
				l-1.8861,0.7226L-828.4347-73.1443z M-823.8779-70.4652c0.3604-0.1375,0.6002-0.3538,0.7242-0.6455
				c0.1241-0.2917,0.1224-0.6002-0.0016-0.9254c-0.1358-0.3504-0.3437-0.5901-0.6287-0.7159
				c-0.2833-0.1257-0.6036-0.1207-0.964,0.0168l-1.192,0.4577l0.8718,2.27L-823.8779-70.4652z"/>
			<path fill="#D36363" d="M-805.8149-78.0364c0.0218,0.3269,0,0.6689-0.0637,1.0227c-0.0637,0.3554-0.1677,0.7075-0.3152,1.0529
				c-0.1475,0.347-0.3386,0.684-0.5734,1.0093c-0.2381,0.3252-0.5164,0.622-0.8416,0.8902c-0.5365,0.4426-1.1031,0.7561-1.7,0.9389
				c-0.5969,0.1844-1.1903,0.2448-1.7838,0.1811c-0.5918-0.0637-1.1602-0.2465-1.7067-0.5482
				c-0.5466-0.3035-1.0428-0.7226-1.4854-1.2591c-0.4308-0.5231-0.7477-1.0847-0.9456-1.6866
				c-0.1995-0.6002-0.2783-1.2021-0.233-1.8023s0.2112-1.1836,0.4996-1.7469c0.2867-0.565,0.7041-1.0713,1.2473-1.5206
				c0.6572-0.5415,1.3295-0.8953,2.0186-1.0596c0.689-0.166,1.3831-0.1559,2.0806,0.0285l-0.2247,1.9481
				c-0.4577-0.1207-0.9053-0.1526-1.3429-0.0939s-0.86,0.2548-1.2625,0.5868c-0.3168,0.2615-0.5549,0.5566-0.7125,0.8835
				c-0.1592,0.3252-0.2414,0.6639-0.2498,1.0143c-0.0067,0.3504,0.0536,0.7008,0.1844,1.0512
				c0.1274,0.3504,0.3185,0.679,0.5684,0.9825c0.2565,0.3102,0.5432,0.56,0.86,0.7494c0.3169,0.1911,0.6438,0.3118,0.9858,0.3638
				c0.3387,0.052,0.679,0.0319,1.0193-0.0587s0.6656-0.2649,0.9758-0.5214c0.2548-0.2096,0.4526-0.4191,0.5968-0.6253
				c0.1442-0.2079,0.2515-0.4158,0.3236-0.6237c0.0721-0.2079,0.1157-0.4158,0.1324-0.6253
				c0.0167-0.2096,0.0302-0.4191,0.0369-0.627L-805.8149-78.0364z"/>
			<path fill="#D36363" d="M-809.1277-85.5691l1.2473-1.6581l5.8511,4.4026l2.6321-3.5006l1.472,1.1065l-3.8829,5.157
				L-809.1277-85.5691z"/>
			<path fill="#D36363" d="M-804.1317-92.5501l0.8383-1.9112l4.9676,2.1778c0.2766,0.1207,0.5381,0.2045,0.7846,0.2465
				c0.2465,0.0436,0.4761,0.0369,0.6907-0.0201c0.2146-0.0553,0.4108-0.166,0.5884-0.3336c0.1777-0.166,0.3336-0.4007,0.4661-0.7025
				c0.1274-0.2934,0.1945-0.5633,0.1962-0.8064c0.0017-0.2448-0.0486-0.4644-0.1525-0.6606
				c-0.104-0.1945-0.2565-0.3688-0.4561-0.5214c-0.1978-0.1509-0.4342-0.2884-0.7108-0.4091l-4.9692-2.1778l0.845-1.9247
				l5.2073,2.2818c0.503,0.2213,0.9288,0.5046,1.2742,0.8534c0.3487,0.347,0.6036,0.7393,0.7678,1.1752
				c0.1643,0.4359,0.2347,0.9104,0.2112,1.4184c-0.0251,0.5097-0.1542,1.0327-0.3889,1.5709
				c-0.2347,0.5365-0.5298,0.9858-0.8852,1.3513c-0.3555,0.3638-0.7511,0.6337-1.187,0.8064
				c-0.4359,0.1744-0.8986,0.2515-1.3898,0.2297c-0.4912-0.0201-0.9875-0.1392-1.4904-0.3605L-804.1317-92.5501z"/>
			<path fill="#D36363" d="M-800.2505-102.5087l0.5566-3.3883c0.0922-0.56,0.2347-1.0244,0.4308-1.3915
				c0.1945-0.3672,0.4191-0.6538,0.6773-0.8634c0.2548-0.2079,0.5365-0.3437,0.8383-0.404c0.3018-0.062,0.6069-0.0687,0.9137-0.0184
				c0.29,0.0486,0.5365,0.1425,0.7394,0.2817c0.2045,0.1408,0.3755,0.2934,0.5096,0.4594c0.1358,0.166,0.2347,0.337,0.3001,0.5097
				s0.1023,0.3102,0.1124,0.4141c0.0704-0.1459,0.1676-0.3152,0.2917-0.508c0.1274-0.2029,0.2934-0.3839,0.4996-0.5449
				c0.2079-0.1609,0.456-0.285,0.7443-0.3722c0.2884-0.0872,0.6136-0.1006,0.9741-0.0419c0.4711,0.0771,0.8533,0.2263,1.1517,0.446
				c0.2985,0.2213,0.5264,0.4996,0.684,0.8366s0.2482,0.7326,0.2716,1.1853c0.0235,0.4543-0.0101,0.9523-0.0989,1.4938
				l-0.5566,3.3883L-800.2505-102.5087z M-796.1078-105.114c0.0269-0.1542,0.0336-0.3085,0.0218-0.4627
				c-0.0117-0.1559-0.0469-0.2951-0.1056-0.4208c-0.057-0.1257-0.1475-0.2347-0.2649-0.3286
				c-0.1207-0.0939-0.275-0.1576-0.4644-0.1878c-0.1995-0.0335-0.3705-0.0235-0.5114,0.0268
				c-0.1442,0.0503-0.2632,0.1291-0.3588,0.233c-0.0972,0.1056-0.1727,0.2297-0.228,0.3739
				c-0.057,0.1442-0.0972,0.2884-0.1207,0.4325l-0.1979,1.2054l2.032,0.3336L-796.1078-105.114z M-792.2384-104.6044
				c0.0235-0.1442,0.0402-0.3085,0.0469-0.4929s-0.0168-0.3605-0.0737-0.5281c-0.057-0.166-0.1526-0.3152-0.2884-0.4443
				c-0.1375-0.1291-0.342-0.2146-0.6119-0.2599c-0.2431-0.0402-0.451-0.0235-0.622,0.052
				c-0.1677,0.0738-0.3085,0.1811-0.4191,0.3202c-0.1123,0.1392-0.1978,0.2968-0.2598,0.4728
				c-0.0621,0.1744-0.1039,0.3403-0.1291,0.4929l-0.218,1.3278l2.3572,0.3873L-792.2384-104.6044z"/>
		</g>
		<g>
			<path fill="#D36363" d="M-796.978-118.8884c-1.6094,0-3.0194-1.1434-3.3547-2.721c-0.1911-0.8953-0.0218-1.8123,0.4778-2.5819
				c0.4996-0.7695,1.2691-1.2976,2.1677-1.4888c1.814-0.3873,3.685,0.8332,4.0706,2.6456c0.1911,0.8953,0.0218,1.8123-0.4778,2.5819
				c-0.4996,0.7695-1.2692,1.2976-2.1678,1.4888C-796.4968-118.9136-796.7382-118.8884-796.978-118.8884z M-796.9713-124.0387
				c-0.119,0-0.2397,0.0134-0.3588,0.0386c-0.4493,0.0956-0.8349,0.3588-1.0847,0.7444c-0.2498,0.3839-0.3336,0.8416-0.2381,1.2893
				c0.1928,0.907,1.1082,1.5173,2.0336,1.3228c0.4493-0.0956,0.835-0.3588,1.0847-0.7444c0.2498-0.3839,0.3337-0.8416,0.2381-1.2893
				C-795.4641-123.467-796.1682-124.0387-796.9713-124.0387z"/>
		</g>
		<g>
			<path fill="#D36363" d="M-883.0208-118.8884L-883.0208-118.8884c-0.2397,0-0.4812-0.0251-0.7176-0.0754
				c-0.8969-0.1911-1.6664-0.7192-2.1661-1.4888c-0.4996-0.7695-0.6689-1.6866-0.4778-2.5835
				c0.3856-1.8107,2.2516-3.0295,4.0723-2.6439c0.897,0.1911,1.6665,0.7192,2.1661,1.4888
				c0.4996,0.7695,0.6689,1.6866,0.4778,2.5835C-880.0014-120.0318-881.4114-118.8884-883.0208-118.8884z M-883.0275-124.0387
				c-0.8031,0-1.5072,0.5717-1.6749,1.3597c-0.0956,0.4493-0.0117,0.907,0.238,1.2909c0.2498,0.3856,0.6354,0.6488,1.0831,0.7444
				c0.9338,0.1962,1.8425-0.4158,2.0353-1.3211c0.0956-0.4493,0.0118-0.907-0.238-1.2909
				c-0.2498-0.3856-0.6354-0.6488-1.0831-0.7444C-882.7878-124.0253-882.9085-124.0387-883.0275-124.0387z"/>
		</g>
		<path fill="#D36363" d="M-832.1428-88.542c3.3329-1.0984,6.3486-2.8808,8.9066-5.1719l-24.6198-42.642
			c-3.3329,1.0984-6.3486,2.8808-8.9066,5.172l10.817,18.735l-10.817,18.735c2.5579,2.2911,5.5736,4.0734,8.9066,5.1719
			l7.8566-13.6077L-832.1428-88.542z"/>
		<path fill="#D36363" d="M-839.9994-141.0616c15.777,0,28.6127,12.8356,28.6127,28.6128s-12.8358,28.6128-28.6127,28.6128
			s-28.6127-12.8356-28.6127-28.6128S-855.7764-141.0616-839.9994-141.0616 M-839.9994-149.6455
			c-20.5432,0-37.1965,16.6535-37.1965,37.1966s16.6534,37.1966,37.1965,37.1966s37.1965-16.6535,37.1965-37.1966
			S-819.4562-149.6455-839.9994-149.6455L-839.9994-149.6455z"/>
	</g>
</g>
<g id="Layer_2">
	<rect x="-256.5" y="-213" fill="#F2F0F0" width="960" height="150"/>
	<g>
		<g>
			<text transform="matrix(1 0 0 1 -137.6199 -120.3479)"><tspan x="0" y="0" fill="#D36363" font-family="'Effra-Bold'" font-size="48" letter-spacing="3">R</tspan><tspan x="32.5005" y="0" fill="#D36363" font-family="'Effra-Bold'" font-size="48" letter-spacing="3">I</tspan><tspan x="49.5352" y="0" fill="#D36363" font-family="'Effra-Bold'" font-size="48" letter-spacing="3">C</tspan><tspan x="85.5591" y="0" fill="#D36363" font-family="'Effra-Bold'" font-size="48" letter-spacing="3">H</tspan><tspan x="123.8726" y="0" fill="#D36363" font-family="'Effra-Bold'" font-size="48" letter-spacing="3">M</tspan><tspan x="165.5557" y="0" fill="#D36363" font-family="'Effra-Bold'" font-size="48" letter-spacing="3">O</tspan><tspan x="206.019" y="0" fill="#D36363" font-family="'Effra-Bold'" font-size="48" letter-spacing="3">N</tspan><tspan x="243.9341" y="0" fill="#D36363" font-family="'Effra-Bold'" font-size="48" letter-spacing="3">D </tspan><tspan x="294.2378" y="0" fill="#D36363" font-family="'Effra-Bold'" font-size="48" letter-spacing="2">C</tspan><tspan x="329.5269" y="0" fill="#D36363" font-family="'Effra-Bold'" font-size="48" letter-spacing="3">O</tspan><tspan x="369.8179" y="0" fill="#D36363" font-family="'Effra-Bold'" font-size="48" letter-spacing="3">M</tspan><tspan x="411.9946" y="0" fill="#D36363" font-family="'Effra-Bold'" font-size="48" letter-spacing="2">P</tspan><tspan x="442.3687" y="0" fill="#D36363" font-family="'Effra-Bold'" font-size="48" letter-spacing="2">U</tspan><tspan x="477.9985" y="0" fill="#D36363" font-family="'Effra-Bold'" font-size="48" letter-spacing="2">T</tspan><tspan x="510.8833" y="0" fill="#D36363" font-family="'Effra-Bold'" font-size="48" letter-spacing="3">E</tspan><tspan x="542.3755" y="0" fill="#D36363" font-family="'Effra-Bold'" font-size="48" letter-spacing="3">R </tspan><tspan x="587.3999" y="0" fill="#D36363" font-family="'Effra-Bold'" font-size="48" letter-spacing="3">C</tspan><tspan x="623.4233" y="0" fill="#D36363" font-family="'Effra-Bold'" font-size="48" letter-spacing="2">L</tspan><tspan x="652.7603" y="0" fill="#D36363" font-family="'Effra-Bold'" font-size="48" letter-spacing="3">U</tspan><tspan x="689.1685" y="0" fill="#D36363" font-family="'Effra-Bold'" font-size="48" letter-spacing="3">B</tspan></text>
		</g>
	</g>
</g>
<g id="Layer_3">
	<rect x="-256" fill="#F2F0F0" width="200" height="200"/>
	<g>
		<g display="none">
			<path display="inline" fill="#D36363" d="M-166.806,131.7729h-7.1648c-2.1392,0-3.6158-2.1423-2.8544-4.1415
				c0,0,12.2437-25.9757,13.4647-35.3545c0.2367-1.8179-0.081-4.0504-0.1826-4.8403c-0.5481-4.2591-2.3581-6.5877-5.5139-7.6442
				c-3.0196-1.0109-5.0427-3.8383-4.6893-7.003v0c0.2788-2.4958,2.3688-4.4346,4.8802-4.44c0.0159,0,0.0317-0.0001,0.0475-0.0001
				c9.8525,0,14.7841,8.6169,19.0066,19.9682l14.6467,39.335c0.7431,1.9957-0.7328,4.1202-2.8624,4.1202h-7.5611
				c-1.3568,0-2.5509-0.895-2.9317-2.1973l-4.8472-12.7417c-1.0002-2.6293-4.722-2.6229-5.7133,0.0097l-4.7911,12.7239
				C-164.25,130.8739-165.4461,131.7729-166.806,131.7729z"/>
		</g>
		<g display="none">
			<path display="inline" fill="none" stroke="#D36363" stroke-width="3" stroke-linecap="round" stroke-miterlimit="10" d="
				M-208.4942,126.6009c2.9347-2.9347,6.781-4.402,10.6273-4.4021c3.8465,0,7.6929,1.4673,10.6277,4.4021"/>
			<path display="inline" fill="none" stroke="#D36363" stroke-width="3" stroke-linecap="round" stroke-miterlimit="10" d="
				M-144.7291,126.6009c-2.9347-2.9347-6.7811-4.402-10.6274-4.4021c-3.8464,0-7.6929,1.4673-10.6276,4.4021"/>
			<path display="inline" fill="none" stroke="#D36363" stroke-width="3" stroke-linecap="round" stroke-miterlimit="10" d="
				M-165.9841,126.6009c-2.9347,2.9347-6.7811,4.402-10.6275,4.4021c-3.8464,0-7.6928-1.4673-10.6276-4.4021"/>
			<path display="inline" fill="none" stroke="#D36363" stroke-width="3" stroke-linecap="round" stroke-miterlimit="10" d="
				M-144.7291,126.6009c2.9346,2.9346,6.7809,4.402,10.6272,4.4021c3.8465,0.0001,7.6931-1.4673,10.6279-4.4021"/>
		</g>
		<g>
			<path fill="#D36363" d="M-231.4644,52.8015l3.5495-4.9097c0.5548-0.7666,1.1484-1.3631,1.7867-1.7867
				c0.6353-0.4236,1.2856-0.692,1.9418-0.8113c0.6562-0.1163,1.3065-0.0895,1.9478,0.0805c0.6413,0.17,1.2438,0.4623,1.8106,0.871
				c0.859,0.6204,1.4735,1.3512,1.8404,2.1894c0.3699,0.8382,0.4981,1.742,0.3848,2.7024l7.4033,0.8889l-2.3743,3.29l-6.6278-1.0499
				l-1.1991,1.6644l4.8501,3.5048l-2.0999,2.9112L-231.4644,52.8015z M-222.0685,52.3571c0.3997-0.5548,0.5518-1.1096,0.4504-1.6674
				c-0.1014-0.5548-0.4027-1.0142-0.9038-1.3751c-0.5429-0.3907-1.0858-0.5429-1.6316-0.4564
				c-0.5459,0.0895-1.0201,0.4116-1.4198,0.9664l-1.3303,1.8404l3.5048,2.5324L-222.0685,52.3571z"/>
			<path fill="#D36363" d="M-218.346,36.7451l2.6815-2.5324l11.1945,11.8447l-2.6845,2.5354L-218.346,36.7451z"/>
			<path fill="#D36363" d="M-188.8758,31.555c-0.0418,0.5816-0.1611,1.1782-0.3579,1.7867
				c-0.1998,0.6115-0.4713,1.2051-0.8113,1.7807c-0.346,0.5757-0.7636,1.1215-1.2587,1.6376
				c-0.4951,0.516-1.0619,0.9724-1.6972,1.3661c-1.0529,0.6502-2.1268,1.0649-3.2244,1.2438
				c-1.0947,0.179-2.1595,0.1432-3.1856-0.1133c-1.0291-0.2535-1.9866-0.7159-2.8784-1.381
				c-0.8918-0.6652-1.6614-1.5242-2.3117-2.5771c-0.6324-1.0261-1.0559-2.0939-1.2587-3.2006
				c-0.2088-1.1096-0.1969-2.1864,0.0239-3.2334c0.2267-1.0499,0.6592-2.0343,1.3065-2.9589
				c0.6443-0.9247,1.4974-1.7181,2.5652-2.3773c1.2886-0.7964,2.5592-1.2558,3.815-1.381c1.2558-0.1223,2.4727,0.0597,3.6599,0.5548
				l-0.871,3.3795c-0.7755-0.3251-1.557-0.4892-2.3415-0.4922c-0.7875,0-1.5749,0.2416-2.3654,0.7308
				c-0.6234,0.3848-1.1156,0.8471-1.4735,1.384c-0.3579,0.5369-0.5846,1.1126-0.6801,1.727
				c-0.1014,0.6174-0.0776,1.2498,0.0656,1.9001c0.1432,0.6473,0.3997,1.2707,0.7636,1.8672
				c0.3788,0.6085,0.8233,1.1186,1.3363,1.5302s1.0619,0.7039,1.6465,0.8769c0.5876,0.173,1.1931,0.2237,1.8136,0.1432
				c0.6204-0.0776,1.2379-0.3042,1.8493-0.6801c0.4981-0.3102,0.8978-0.6294,1.2021-0.9605
				c0.3013-0.3311,0.5429-0.6711,0.7189-1.0201c0.179-0.346,0.3042-0.7039,0.3878-1.0708c0.0775-0.3639,0.1491-0.7308,0.2148-1.0947
				L-188.8758,31.555z"/>
			<path fill="#D36363" d="M-186.7401,16.3725l3.5555-0.9843l1.6704,6.0253l6.8068-1.8851l-1.6704-6.0283l3.5555-0.9873
				l4.3549,15.7075l-3.5555,0.9843l-1.7897-6.4518l-6.8068,1.8881l1.7897,6.4518l-3.5555,0.9843L-186.7401,16.3725z"/>
			<path fill="#D36363" d="M-160.7061,11.0124l3.4899,0.1163l3.997,7.7851l4.4056-7.5048l3.5167,0.1163l0.2148,16.316
				l-3.6868-0.1223l-0.1104-10.6635l-3.5824,6.2371l-1.903-0.0626l-3.3586-6.3951l-0.7666,10.5591l-3.5167-0.1163L-160.7061,11.0124
				z"/>
			<path fill="#D36363" d="M-131.7192,32.1217c-1.1335-0.4057-2.1148-0.9903-2.941-1.7509
				c-0.8262-0.7636-1.4675-1.6316-1.9209-2.607c-0.4594-0.9784-0.7099-2.0313-0.7636-3.1677
				c-0.0537-1.1335,0.1223-2.2699,0.528-3.4034c0.4116-1.1514,0.9962-2.1446,1.7539-2.9798
				c0.7546-0.8382,1.6197-1.4884,2.5921-1.9537c0.9724-0.4683,2.0164-0.7338,3.1379-0.7994
				c1.1245-0.0656,2.252,0.1044,3.3885,0.5101c1.1335,0.4057,2.1148,0.9903,2.941,1.7509c0.8262,0.7636,1.4675,1.6316,1.9209,2.607
				c0.4594,0.9784,0.7129,2.0283,0.7696,3.1558c0.0537,1.1275-0.1253,2.2669-0.5339,3.4153
				c-0.4057,1.1365-0.9873,2.1267-1.7509,2.9709c-0.7576,0.8441-1.6226,1.4974-2.595,1.9627
				c-0.9724,0.4683-2.0164,0.7338-3.1379,0.7994C-129.4552,32.6974-130.5827,32.5274-131.7192,32.1217z M-130.5499,28.8555
				c0.6741,0.2416,1.3244,0.3281,1.9567,0.2565c0.6294-0.0686,1.211-0.2565,1.7479-0.5667
				c0.5339-0.3102,1.0052-0.7218,1.4139-1.2349c0.4057-0.5101,0.7278-1.0977,0.9664-1.7569
				c0.2327-0.6592,0.3579-1.3154,0.3639-1.9687c0.0119-0.6562-0.0955-1.2677-0.3162-1.8404
				c-0.2177-0.5697-0.5488-1.0798-0.9963-1.5242c-0.4474-0.4444-1.0082-0.7875-1.6823-1.0291
				c-0.6741-0.2416-1.3303-0.3341-1.9657-0.2744c-0.6353,0.0597-1.22,0.2386-1.7509,0.5429
				c-0.5309,0.3013-1.0022,0.7099-1.4079,1.22c-0.4116,0.513-0.7308,1.0977-0.9664,1.7569
				c-0.2356,0.6592-0.3579,1.3184-0.3669,1.9716c-0.0089,0.6532,0.0925,1.2707,0.3132,1.8493
				c0.2148,0.5787,0.5488,1.0977,1.0022,1.5511C-131.7908,28.2649-131.2241,28.6139-130.5499,28.8555z"/>
			<path fill="#D36363" d="M-108.6442,24.5484l2.8217,2.1029l-0.6622,12.7038l6.3236-8.4831l2.9172,2.1745l-9.7389,13.0677
				l-2.6845-2.0015l0.6413-12.9603l-6.4399,8.6382l-2.9202-2.1745L-108.6442,24.5484z"/>
			<path fill="#D36363" d="M-89.244,41.0015l3.6987,4.9246c0.7546,1.0022,1.3214,2.0283,1.7002,3.0783
				c0.3818,1.047,0.5369,2.082,0.4683,3.1021s-0.3907,2.0134-0.9634,2.9858c-0.5757,0.9724-1.4288,1.8822-2.5622,2.7352
				c-1.0828,0.8113-2.1536,1.3423-3.2185,1.5928c-1.0678,0.2506-2.0999,0.2685-3.1081,0.0567
				c-1.0022-0.2118-1.9627-0.6443-2.8695-1.2975s-1.736-1.4795-2.4906-2.4847l-3.6838-4.9037L-89.244,41.0015z M-96.0895,53.5741
				c0.9784,1.3005,2.0731,2.0462,3.2871,2.2371c1.211,0.1879,2.4161-0.167,3.6152-1.0649c0.5995-0.4504,1.0828-0.9426,1.4467-1.4705
				c0.3669-0.5309,0.5966-1.0917,0.692-1.6823c0.0955-0.5906,0.0477-1.211-0.1432-1.8613
				c-0.1939-0.6503-0.5548-1.3274-1.0828-2.0313l-1.3512-1.7957l-7.815,5.8702L-96.0895,53.5741z"/>
		</g>
		<g>
			<path fill="#D36363" d="M-239.2585,122.8499c-0.525-0.2535-1.035-0.5876-1.5272-0.9963
				c-0.4922-0.4116-0.9456-0.8799-1.3512-1.4138c-0.4086-0.5309-0.7606-1.1245-1.0559-1.7748
				c-0.2983-0.6503-0.5071-1.3452-0.6383-2.082c-0.2148-1.22-0.2028-2.3713,0.0388-3.4571
				c0.2416-1.0828,0.6682-2.0552,1.2856-2.9172c0.6204-0.862,1.4019-1.5809,2.3504-2.1596
				c0.9485-0.5816,2.0343-0.9784,3.2513-1.1901c1.1872-0.2088,2.3355-0.2028,3.4422,0.0149
				c1.1036,0.2207,2.0999,0.6294,2.9918,1.2259c0.8889,0.5966,1.6435,1.3631,2.2639,2.3057
				c0.6204,0.9426,1.038,2.0283,1.2558,3.2662c0.2595,1.4914,0.2177,2.8426-0.1342,4.0536c-0.346,1.211-0.9724,2.2759-1.8672,3.1946
				l-2.8188-2.0611c0.5876-0.5995,1.0291-1.2647,1.3244-1.9955c0.2953-0.7278,0.3609-1.5511,0.1998-2.4668
				c-0.1253-0.7218-0.3728-1.3482-0.7397-1.8792c-0.3639-0.5309-0.8173-0.9575-1.3512-1.2766
				c-0.5369-0.3192-1.1305-0.5309-1.7867-0.6413c-0.6562-0.1074-1.3303-0.1014-2.0194,0.0209
				c-0.7069,0.1223-1.3452,0.346-1.918,0.6711c-0.5727,0.3221-1.044,0.7248-1.4258,1.2051
				c-0.3788,0.4802-0.6473,1.0231-0.8054,1.6286c-0.1581,0.6055-0.173,1.2617-0.0507,1.9687
				c0.1014,0.5787,0.2476,1.0678,0.4444,1.4735c0.1939,0.4027,0.4206,0.7517,0.6801,1.047
				c0.2565,0.2923,0.5429,0.5459,0.8531,0.7546c0.3072,0.2118,0.6204,0.4116,0.9366,0.6055L-239.2585,122.8499z"/>
			<path fill="#D36363" d="M-236.738,138.3784c-0.519-1.0887-0.7994-2.1924-0.8471-3.3169
				c-0.0477-1.1215,0.1134-2.1894,0.4802-3.2035c0.3669-1.0112,0.9306-1.9388,1.6972-2.78c0.7636-0.8412,1.6883-1.5212,2.777-2.0373
				c1.1036-0.525,2.2162-0.8173,3.3437-0.874s2.2013,0.0925,3.2155,0.4474c1.0201,0.355,1.9448,0.9038,2.7889,1.6495
				c0.8412,0.7457,1.5182,1.6644,2.0373,2.7531s0.7994,2.1953,0.8471,3.3169c0.0477,1.1245-0.1134,2.1924-0.4802,3.2035
				c-0.3669,1.0142-0.9277,1.9388-1.6853,2.777c-0.7547,0.8352-1.6823,1.5183-2.7859,2.0432
				c-1.0917,0.516-2.2013,0.8054-3.3348,0.868c-1.1364,0.0597-2.2132-0.0865-3.2274-0.4444
				c-1.0171-0.355-1.9448-0.9038-2.7859-1.6495C-235.5389,140.3858-236.219,139.4671-236.738,138.3784z M-233.6031,136.89
				c0.3072,0.6473,0.7069,1.1693,1.2021,1.566s1.044,0.6711,1.6405,0.8292c0.5966,0.1581,1.2229,0.1999,1.8732,0.1253
				s1.2886-0.2625,1.9209-0.5638c0.6324-0.2983,1.1842-0.6771,1.6525-1.1365c0.4683-0.4564,0.8262-0.9634,1.0738-1.5242
				c0.2506-0.5608,0.3699-1.1543,0.3699-1.7837c0-0.6324-0.1551-1.2707-0.4653-1.9179c-0.3072-0.6473-0.7069-1.1752-1.1991-1.5809
				c-0.4892-0.4086-1.032-0.692-1.6226-0.8531c-0.5906-0.1611-1.211-0.2028-1.8583-0.1283
				c-0.6503,0.0746-1.2916,0.2625-1.9239,0.5608c-0.6324,0.3013-1.1842,0.6801-1.6525,1.1364
				c-0.4683,0.4594-0.8292,0.9694-1.0857,1.5302c-0.2565,0.5638-0.3818,1.1663-0.3848,1.8076
				C-234.0654,135.5984-233.9103,136.2427-233.6031,136.89z"/>
			<path fill="#D36363" d="M-215.0828,143.0166l2.3445,2.595l-2.8277,8.2803l8.4592-2.0432l2.3624,2.61l-11.5852,11.4868
				l-2.4757-2.7352l7.5942-7.4868l-6.9738,1.7569l-1.2766-1.4138l2.2669-6.8575l-8.1311,6.7829l-2.3564-2.61L-215.0828,143.0166z"/>
			<path fill="#D36363" d="M-200.0226,158.1037l4.9843,3.2274c0.8471,0.5488,1.4914,1.1394,1.9358,1.7778
				c0.4415,0.6353,0.7278,1.2796,0.8561,1.9358c0.1283,0.6562,0.1133,1.3095-0.0477,1.9627
				c-0.1611,0.6532-0.4295,1.2677-0.7994,1.8404c-0.4772,0.7397-1.0231,1.3035-1.6346,1.6942
				c-0.6115,0.3878-1.2528,0.6294-1.9209,0.7189c-0.6711,0.0895-1.3482,0.0507-2.0343-0.1223
				c-0.6831-0.17-1.3333-0.4564-1.9478-0.8531l-2.1148-1.3691l-3.12,4.8202l-3.0126-1.9508L-200.0226,158.1037z M-199.3186,167.5831
				c0.5757,0.3728,1.1424,0.4922,1.7032,0.3609c0.5608-0.1312,1.0201-0.4772,1.384-1.041c0.3729-0.5727,0.5041-1.1514,0.3997-1.736
				c-0.1074-0.5816-0.4504-1.0619-1.0261-1.4317l-1.7837-1.1573l-2.4817,3.8359L-199.3186,167.5831z"/>
			<path fill="#D36363" d="M-186.591,166.3184l3.5018,1.2349l-3.2065,9.1035c-0.179,0.5071-0.2893,0.9813-0.3341,1.4228
				c-0.0447,0.4444-0.003,0.8531,0.1283,1.2259c0.1253,0.3728,0.349,0.7039,0.6682,0.9992
				c0.3221,0.2923,0.7576,0.5369,1.3094,0.7338c0.5399,0.1879,1.0231,0.2684,1.4586,0.2416
				c0.4295-0.0298,0.8173-0.1491,1.1484-0.3609c0.3311-0.2118,0.6234-0.5011,0.865-0.874c0.2416-0.3729,0.4534-0.8113,0.6324-1.3184
				l3.2065-9.1035l3.5257,1.2409l-3.3586,9.542c-0.3251,0.9217-0.7755,1.7151-1.3423,2.3773
				c-0.5727,0.6622-1.2349,1.1693-1.9865,1.5153c-0.7517,0.349-1.5809,0.5369-2.4877,0.5608
				c-0.9098,0.0268-1.8553-0.1342-2.8396-0.4802c-0.9814-0.346-1.8195-0.8083-2.5115-1.39c-0.695-0.5816-1.223-1.2468-1.5928-1.9985
				c-0.3639-0.7517-0.5608-1.563-0.5906-2.437s0.1193-1.7718,0.4415-2.6935L-186.591,166.3184z"/>
			<path fill="#D36363" d="M-164.8761,175.4577l-5.2557-0.4832l0.2983-3.2363l14.1862,1.3035l-0.2983,3.2363l-5.2319-0.4802
				l-1.1931,12.9931l-3.6987-0.34L-164.8761,175.4577z"/>
			<path fill="#D36363" d="M-151.6265,172.7761l11.0424-1.4914l0.4295,3.1946l-7.3854,0.9992l0.4236,3.1469l5.7389-0.7755
				l0.4206,3.0991l-5.7389,0.7785l0.4713,3.4869l7.9194-1.0708l0.4355,3.2185l-11.5763,1.566L-151.6265,172.7761z"/>
			<path fill="#D36363" d="M-135.4239,169.9902l5.6554-2.1715c0.8829-0.3371,1.7062-0.5101,2.4728-0.516
				s1.4556,0.1223,2.0731,0.3848c0.6145,0.2595,1.1394,0.6383,1.5839,1.1305c0.4415,0.4951,0.7904,1.0679,1.041,1.7211
				c0.3788,0.9903,0.4922,1.9359,0.34,2.8396c-0.1491,0.9038-0.5339,1.7271-1.1573,2.4728l5.7151,4.7964l-3.7882,1.4526
				l-4.9724-4.504l-1.9179,0.7338l2.1476,5.5898l-3.3557,1.2856L-135.4239,169.9902z M-127.3166,174.7567
				c0.6413-0.2446,1.0678-0.6294,1.2886-1.1484c0.2207-0.519,0.2177-1.0679-0.003-1.6465c-0.2416-0.6234-0.6115-1.05-1.1186-1.2737
				c-0.5041-0.2237-1.0738-0.2148-1.7151,0.0298l-2.1208,0.8143l1.5511,4.0387L-127.3166,174.7567z"/>
			<path fill="#D36363" d="M-95.1798,161.2864c0.0388,0.5816,0,1.1901-0.1133,1.8195c-0.1133,0.6324-0.2983,1.2588-0.5608,1.8732
				c-0.2625,0.6174-0.6025,1.217-1.0201,1.7957c-0.4236,0.5787-0.9187,1.1066-1.4974,1.5839
				c-0.9545,0.7875-1.9627,1.3452-3.0246,1.6704c-1.0619,0.3281-2.1178,0.4355-3.1737,0.3221
				c-1.0529-0.1133-2.0641-0.4385-3.0365-0.9754c-0.9724-0.5399-1.8553-1.2856-2.6428-2.2401
				c-0.7666-0.9306-1.3303-1.9299-1.6823-3.0007c-0.355-1.0678-0.4951-2.1387-0.4146-3.2065s0.3758-2.1059,0.8889-3.1081
				c0.5101-1.0052,1.2528-1.906,2.2192-2.7054c1.1693-0.9634,2.3654-1.5928,3.5913-1.8851
				c1.2259-0.2953,2.4608-0.2774,3.7017,0.0507l-0.3997,3.466c-0.8143-0.2148-1.6107-0.2714-2.3892-0.167
				c-0.7785,0.1044-1.5302,0.4534-2.2461,1.044c-0.5638,0.4653-0.9873,0.9903-1.2677,1.5719
				c-0.2834,0.5787-0.4295,1.1812-0.4444,1.8046c-0.0119,0.6234,0.0955,1.2468,0.3281,1.8702
				c0.2267,0.6234,0.5667,1.208,1.0112,1.7479c0.4564,0.5518,0.9664,0.9963,1.5302,1.3333c0.5638,0.34,1.1454,0.5548,1.7539,0.6473
				c0.6025,0.0925,1.208,0.0567,1.8135-0.1044c0.6055-0.1611,1.1842-0.4713,1.736-0.9276c0.4534-0.3729,0.8054-0.7457,1.0619-1.1126
				c0.2565-0.3699,0.4474-0.7397,0.5757-1.1096c0.1283-0.3699,0.2058-0.7397,0.2356-1.1126
				c0.0298-0.3728,0.0537-0.7457,0.0656-1.1156L-95.1798,161.2864z"/>
			<path fill="#D36363" d="M-101.0738,147.8846l2.2192-2.95l10.41,7.8329l4.683-6.2281l2.6189,1.9687l-6.9082,9.1751
				L-101.0738,147.8846z"/>
			<path fill="#D36363" d="M-92.185,135.4642l1.4914-3.4004l8.8381,3.8747c0.4922,0.2148,0.9575,0.3639,1.396,0.4385
				c0.4385,0.0775,0.8471,0.0656,1.2289-0.0358c0.3818-0.0984,0.7308-0.2953,1.047-0.5936
				c0.3162-0.2953,0.5936-0.7129,0.8292-1.2498c0.2267-0.522,0.346-1.0022,0.349-1.4347c0.003-0.4355-0.0865-0.8262-0.2714-1.1752
				c-0.1849-0.346-0.4564-0.6562-0.8113-0.9276c-0.352-0.2685-0.7725-0.513-1.2647-0.7278l-8.841-3.8747l1.5033-3.4243
				l9.2646,4.0596c0.8948,0.3937,1.6525,0.8978,2.2669,1.5182c0.6204,0.6174,1.0738,1.3154,1.3661,2.091
				c0.2923,0.7755,0.4176,1.6197,0.3758,2.5235c-0.0447,0.9068-0.2744,1.8374-0.692,2.7949
				c-0.4176,0.9545-0.9426,1.7539-1.5749,2.4041c-0.6324,0.6473-1.3363,1.1275-2.1118,1.4347
				c-0.7755,0.3102-1.5988,0.4474-2.4727,0.4086c-0.874-0.0358-1.7569-0.2476-2.6517-0.6413L-92.185,135.4642z"/>
			<path fill="#D36363" d="M-85.2798,117.7463l0.9903-6.0283c0.1641-0.9963,0.4176-1.8225,0.7666-2.4757
				c0.346-0.6532,0.7457-1.1633,1.2051-1.5361c0.4534-0.3699,0.9545-0.6115,1.4914-0.7189
				c0.5369-0.1104,1.0798-0.1223,1.6256-0.0328c0.516,0.0865,0.9545,0.2535,1.3154,0.5011c0.3639,0.2506,0.6681,0.522,0.9068,0.8173
				c0.2416,0.2953,0.4176,0.5995,0.5339,0.9068c0.1163,0.3072,0.1819,0.5518,0.1998,0.7368
				c0.1253-0.2595,0.2983-0.5608,0.519-0.9038c0.2267-0.3609,0.522-0.6831,0.8889-0.9694c0.3699-0.2863,0.8113-0.5071,1.3244-0.6622
				c0.513-0.1551,1.0917-0.179,1.733-0.0746c0.8382,0.1372,1.5182,0.4027,2.0492,0.7934c0.5309,0.3937,0.9366,0.8889,1.217,1.4884
				c0.2804,0.5995,0.4415,1.3035,0.4832,2.1088c0.0418,0.8083-0.0179,1.6942-0.176,2.6577l-0.9903,6.0283L-85.2798,117.7463z
				 M-77.9093,113.111c0.0477-0.2744,0.0597-0.5488,0.0388-0.8233c-0.0209-0.2774-0.0835-0.525-0.1879-0.7487
				c-0.1014-0.2237-0.2625-0.4176-0.4713-0.5846c-0.2148-0.167-0.4892-0.2804-0.8262-0.3341
				c-0.355-0.0597-0.6592-0.0418-0.9098,0.0477c-0.2565,0.0895-0.4683,0.2297-0.6383,0.4146
				c-0.173,0.1879-0.3072,0.4086-0.4057,0.6652c-0.1014,0.2565-0.173,0.513-0.2148,0.7696l-0.352,2.1446l3.6152,0.5936
				L-77.9093,113.111z M-71.025,114.0178c0.0418-0.2565,0.0716-0.5488,0.0835-0.8769s-0.0298-0.6413-0.1312-0.9396
				c-0.1014-0.2953-0.2714-0.5608-0.513-0.7904c-0.2446-0.2297-0.6085-0.3818-1.0887-0.4623
				c-0.4325-0.0716-0.8024-0.0418-1.1066,0.0925c-0.2983,0.1312-0.5488,0.3221-0.7457,0.5697
				c-0.1999,0.2476-0.352,0.528-0.4623,0.8411c-0.1104,0.3102-0.1849,0.6055-0.2297,0.8769l-0.3878,2.3624l4.1938,0.689
				L-71.025,114.0178z"/>
		</g>
		<g>
			<path fill="#D36363" d="M-79.4574,88.6042c-2.8635,0-5.372-2.0343-5.9686-4.8411c-0.34-1.5928-0.0388-3.2244,0.8501-4.5935
				s2.258-2.3087,3.8568-2.6487c3.2274-0.689,6.5562,1.4825,7.2423,4.7069c0.34,1.5928,0.0388,3.2244-0.8501,4.5935
				s-2.258,2.3087-3.8568,2.6487C-78.6013,88.5595-79.0308,88.6042-79.4574,88.6042z M-79.4454,79.441
				c-0.2118,0-0.4265,0.0239-0.6383,0.0686c-0.7994,0.17-1.4854,0.6383-1.9299,1.3244c-0.4444,0.6831-0.5936,1.4974-0.4236,2.2938
				c0.343,1.6137,1.9716,2.6994,3.6181,2.3534c0.7994-0.17,1.4854-0.6383,1.9299-1.3244c0.4444-0.6831,0.5936-1.4974,0.4236-2.2938
				C-76.7639,80.4582-78.0167,79.441-79.4454,79.441z"/>
		</g>
		<g>
			<path fill="#D36363" d="M-232.5412,88.6042L-232.5412,88.6042c-0.4265,0-0.8561-0.0447-1.2767-0.1342
				c-1.5958-0.34-2.9649-1.2796-3.8538-2.6487c-0.8889-1.3691-1.1901-3.0007-0.8501-4.5965
				c0.6861-3.2214,4.0059-5.3899,7.2453-4.7039c1.5958,0.34,2.9649,1.2796,3.8538,2.6487c0.8889,1.3691,1.1901,3.0007,0.8501,4.5965
				C-227.1691,86.5699-229.6777,88.6042-232.5412,88.6042z M-232.5531,79.441c-1.4288,0-2.6815,1.0171-2.9798,2.4191
				c-0.17,0.7994-0.0209,1.6137,0.4236,2.2968c0.4444,0.6861,1.1305,1.1544,1.9269,1.3244c1.6614,0.349,3.2781-0.7397,3.6211-2.3505
				c0.17-0.7994,0.0209-1.6137-0.4236-2.2968c-0.4444-0.686-1.1305-1.1543-1.9269-1.3244
				C-232.1266,79.4649-232.3413,79.441-232.5531,79.441z"/>
		</g>
		<path fill="#D36363" d="M-142.0211,142.5953c5.9298-1.9543,11.2952-5.1254,15.8462-9.2016l-43.8026-75.8669
			c-5.9298,1.9543-11.2952,5.1254-15.8462,9.2018l19.2451,33.3325l-19.2451,33.3325c4.551,4.0762,9.9164,7.2473,15.8462,9.2016
			l13.9782-24.2102L-142.0211,142.5953z"/>
		<path fill="#D36363" d="M-155.9993,49.1546c28.0697,0,50.9065,22.8366,50.9065,50.9066s-22.8368,50.9066-50.9065,50.9066
			s-50.9065-22.8366-50.9065-50.9066S-184.069,49.1546-155.9993,49.1546 M-155.9993,33.8826
			c-36.5495,0-66.1785,29.6292-66.1785,66.1786s29.629,66.1786,66.1785,66.1786s66.1785-29.6292,66.1785-66.1786
			S-119.4498,33.8826-155.9993,33.8826L-155.9993,33.8826z"/>
	</g>
</g>
<g id="Layer_5">
	<g>
		<g display="none">
			<path display="inline" fill="#D36363" d="M89.194,131.7729h-7.1648c-2.1392,0-3.6158-2.1423-2.8544-4.1415
				c0,0,12.2437-25.9757,13.4647-35.3545c0.2367-1.8179-0.081-4.0504-0.1827-4.8403c-0.5481-4.2591-2.3581-6.5877-5.5139-7.6442
				c-3.0196-1.0109-5.0427-3.8383-4.6893-7.003v0c0.2788-2.4958,2.3688-4.4346,4.8802-4.44c0.0159,0,0.0317-0.0001,0.0475-0.0001
				c9.8525,0,14.7841,8.6169,19.0066,19.9682l14.6467,39.335c0.7431,1.9957-0.7328,4.1202-2.8624,4.1202h-7.5611
				c-1.3568,0-2.5509-0.895-2.9317-2.1973l-4.8472-12.7417c-1.0002-2.6293-4.722-2.6229-5.7133,0.0097l-4.7911,12.7239
				C91.75,130.8739,90.5539,131.7729,89.194,131.7729z"/>
		</g>
		<g display="none">
			<path display="inline" fill="none" stroke="#D36363" stroke-width="3" stroke-linecap="round" stroke-miterlimit="10" d="
				M47.5058,126.6009c2.9347-2.9347,6.781-4.402,10.6273-4.4021c3.8465,0,7.6929,1.4673,10.6277,4.4021"/>
			<path display="inline" fill="none" stroke="#D36363" stroke-width="3" stroke-linecap="round" stroke-miterlimit="10" d="
				M111.2709,126.6009c-2.9347-2.9347-6.7811-4.402-10.6274-4.4021c-3.8464,0-7.6929,1.4673-10.6276,4.4021"/>
			<path display="inline" fill="none" stroke="#D36363" stroke-width="3" stroke-linecap="round" stroke-miterlimit="10" d="
				M90.0159,126.6009c-2.9347,2.9347-6.7811,4.402-10.6275,4.4021c-3.8464,0-7.6928-1.4673-10.6276-4.4021"/>
			<path display="inline" fill="none" stroke="#D36363" stroke-width="3" stroke-linecap="round" stroke-miterlimit="10" d="
				M111.2709,126.6009c2.9346,2.9346,6.7809,4.402,10.6272,4.4021c3.8465,0.0001,7.6931-1.4673,10.6279-4.4021"/>
		</g>
		<g>
			<path fill="#D36363" d="M24.5356,52.8015l3.5495-4.9097c0.5548-0.7666,1.1484-1.3631,1.7867-1.7867
				c0.6353-0.4236,1.2856-0.692,1.9418-0.8113c0.6562-0.1163,1.3065-0.0895,1.9478,0.0805c0.6413,0.17,1.2438,0.4623,1.8106,0.871
				c0.8591,0.6204,1.4735,1.3512,1.8404,2.1894c0.3699,0.8382,0.4981,1.742,0.3848,2.7024l7.4033,0.8889l-2.3743,3.29
				l-6.6278-1.0499l-1.1991,1.6644l4.8501,3.5048l-2.0999,2.9112L24.5356,52.8015z M33.9315,52.3571
				c0.3997-0.5548,0.5518-1.1096,0.4504-1.6674c-0.1014-0.5548-0.4027-1.0142-0.9038-1.3751
				c-0.5429-0.3907-1.0857-0.5429-1.6316-0.4564c-0.5459,0.0895-1.0201,0.4116-1.4198,0.9664l-1.3303,1.8404l3.5048,2.5324
				L33.9315,52.3571z"/>
			<path fill="#D36363" d="M37.654,36.7451l2.6815-2.5324l11.1945,11.8447l-2.6845,2.5354L37.654,36.7451z"/>
			<path fill="#D36363" d="M67.1242,31.555c-0.0418,0.5816-0.1611,1.1782-0.3579,1.7867c-0.1999,0.6115-0.4713,1.2051-0.8113,1.7807
				c-0.346,0.5757-0.7636,1.1215-1.2588,1.6376c-0.4951,0.516-1.0619,0.9724-1.6972,1.3661
				c-1.0529,0.6502-2.1267,1.0649-3.2244,1.2438c-1.0947,0.179-2.1596,0.1432-3.1856-0.1133
				c-1.0291-0.2535-1.9865-0.7159-2.8784-1.381c-0.8919-0.6652-1.6614-1.5242-2.3117-2.5771
				c-0.6324-1.0261-1.0559-2.0939-1.2587-3.2006c-0.2088-1.1096-0.1969-2.1864,0.0239-3.2334
				c0.2267-1.0499,0.6592-2.0343,1.3065-2.9589c0.6443-0.9247,1.4974-1.7181,2.5652-2.3773c1.2886-0.7964,2.5592-1.2558,3.815-1.381
				c1.2558-0.1223,2.4728,0.0597,3.6599,0.5548l-0.871,3.3795c-0.7755-0.3251-1.557-0.4892-2.3415-0.4922
				c-0.7875,0-1.5749,0.2416-2.3654,0.7308c-0.6234,0.3848-1.1156,0.8471-1.4735,1.384c-0.3579,0.5369-0.5846,1.1126-0.6801,1.727
				c-0.1014,0.6174-0.0776,1.2498,0.0656,1.9001c0.1432,0.6473,0.3997,1.2707,0.7636,1.8672
				c0.3788,0.6085,0.8233,1.1186,1.3363,1.5302c0.513,0.4116,1.0619,0.7039,1.6465,0.8769c0.5876,0.173,1.1931,0.2237,1.8135,0.1432
				c0.6204-0.0776,1.2379-0.3042,1.8493-0.6801c0.4981-0.3102,0.8978-0.6294,1.2021-0.9605
				c0.3013-0.3311,0.5429-0.6711,0.7189-1.0201c0.179-0.346,0.3042-0.7039,0.3878-1.0708c0.0776-0.3639,0.1491-0.7308,0.2148-1.0947
				L67.1242,31.555z"/>
			<path fill="#D36363" d="M69.2599,16.3725l3.5555-0.9843l1.6704,6.0253l6.8068-1.8851L79.6222,13.5l3.5555-0.9873l4.3549,15.7075
				l-3.5555,0.9843l-1.7897-6.4518l-6.8068,1.8881l1.7897,6.4518l-3.5555,0.9843L69.2599,16.3725z"/>
			<path fill="#D36363" d="M95.2938,11.0124l3.4899,0.1163l3.997,7.7851l4.4056-7.5048l3.5167,0.1163l0.2148,16.316l-3.6868-0.1223
				l-0.1104-10.6635l-3.5824,6.2371l-1.903-0.0626l-3.3586-6.3951L97.5101,27.394l-3.5167-0.1163L95.2938,11.0124z"/>
			<path fill="#D36363" d="M124.2808,32.1217c-1.1335-0.4057-2.1148-0.9903-2.9411-1.7509
				c-0.8262-0.7636-1.4675-1.6316-1.9209-2.607c-0.4594-0.9784-0.7099-2.0313-0.7636-3.1677
				c-0.0537-1.1335,0.1223-2.2699,0.528-3.4034c0.4116-1.1514,0.9963-2.1446,1.7539-2.9798
				c0.7547-0.8382,1.6197-1.4884,2.5921-1.9537c0.9724-0.4683,2.0164-0.7338,3.1379-0.7994
				c1.1245-0.0656,2.252,0.1044,3.3885,0.5101c1.1335,0.4057,2.1148,0.9903,2.9411,1.7509c0.8262,0.7636,1.4675,1.6316,1.9209,2.607
				c0.4594,0.9784,0.7129,2.0283,0.7696,3.1558c0.0537,1.1275-0.1253,2.2669-0.5339,3.4153
				c-0.4057,1.1365-0.9873,2.1267-1.7509,2.9709c-0.7576,0.8441-1.6227,1.4974-2.595,1.9627
				c-0.9724,0.4683-2.0164,0.7338-3.1379,0.7994C126.5448,32.6974,125.4173,32.5274,124.2808,32.1217z M125.4501,28.8555
				c0.6741,0.2416,1.3244,0.3281,1.9567,0.2565c0.6294-0.0686,1.211-0.2565,1.7479-0.5667
				c0.5339-0.3102,1.0052-0.7218,1.4138-1.2349c0.4057-0.5101,0.7278-1.0977,0.9664-1.7569
				c0.2327-0.6592,0.3579-1.3154,0.3639-1.9687c0.0119-0.6562-0.0954-1.2677-0.3162-1.8404
				c-0.2177-0.5697-0.5488-1.0798-0.9963-1.5242c-0.4474-0.4444-1.0082-0.7875-1.6823-1.0291
				c-0.6741-0.2416-1.3303-0.3341-1.9657-0.2744s-1.22,0.2386-1.7509,0.5429c-0.5309,0.3013-1.0022,0.7099-1.4079,1.22
				c-0.4116,0.513-0.7308,1.0977-0.9664,1.7569c-0.2356,0.6592-0.3579,1.3184-0.3669,1.9716
				c-0.0089,0.6532,0.0925,1.2707,0.3132,1.8493c0.2148,0.5787,0.5488,1.0977,1.0022,1.5511
				C124.2092,28.2649,124.7759,28.6139,125.4501,28.8555z"/>
			<path fill="#D36363" d="M147.3558,24.5484l2.8217,2.1029l-0.6622,12.7038l6.3235-8.4831l2.9172,2.1745l-9.7389,13.0677
				l-2.6845-2.0015l0.6413-12.9603l-6.4399,8.6382l-2.9202-2.1745L147.3558,24.5484z"/>
			<path fill="#D36363" d="M166.756,41.0015l3.6987,4.9246c0.7547,1.0022,1.3214,2.0283,1.7002,3.0783
				c0.3818,1.047,0.5369,2.082,0.4683,3.1021s-0.3907,2.0134-0.9634,2.9858c-0.5757,0.9724-1.4288,1.8822-2.5622,2.7352
				c-1.0827,0.8113-2.1536,1.3423-3.2184,1.5928c-1.0679,0.2506-2.0999,0.2685-3.1081,0.0567
				c-1.0022-0.2118-1.9627-0.6443-2.8695-1.2975s-1.736-1.4795-2.4906-2.4847l-3.6838-4.9037L166.756,41.0015z M159.9105,53.5741
				c0.9784,1.3005,2.0731,2.0462,3.2871,2.2371c1.211,0.1879,2.4161-0.167,3.6152-1.0649c0.5995-0.4504,1.0827-0.9426,1.4467-1.4705
				c0.3669-0.5309,0.5966-1.0917,0.692-1.6823c0.0954-0.5906,0.0477-1.211-0.1432-1.8613
				c-0.1939-0.6503-0.5548-1.3274-1.0828-2.0313l-1.3512-1.7957l-7.815,5.8702L159.9105,53.5741z"/>
		</g>
		<g>
			<path fill="#D36363" d="M16.7415,122.8499c-0.525-0.2535-1.035-0.5876-1.5272-0.9963c-0.4922-0.4116-0.9456-0.8799-1.3512-1.4138
				c-0.4086-0.5309-0.7606-1.1245-1.0559-1.7748c-0.2983-0.6503-0.5071-1.3452-0.6383-2.082
				c-0.2148-1.22-0.2028-2.3713,0.0388-3.4571c0.2416-1.0828,0.6681-2.0552,1.2856-2.9172c0.6204-0.862,1.4019-1.5809,2.3505-2.1596
				c0.9485-0.5816,2.0343-0.9784,3.2513-1.1901c1.1872-0.2088,2.3355-0.2028,3.4422,0.0149
				c1.1036,0.2207,2.0999,0.6294,2.9918,1.2259c0.8889,0.5966,1.6435,1.3631,2.264,2.3057c0.6204,0.9426,1.038,2.0283,1.2558,3.2662
				c0.2595,1.4914,0.2177,2.8426-0.1342,4.0536c-0.346,1.211-0.9724,2.2759-1.8672,3.1946l-2.8188-2.0611
				c0.5876-0.5995,1.0291-1.2647,1.3244-1.9955c0.2953-0.7278,0.3609-1.5511,0.1998-2.4668
				c-0.1253-0.7218-0.3729-1.3482-0.7397-1.8792c-0.3639-0.5309-0.8173-0.9575-1.3512-1.2766
				c-0.5369-0.3192-1.1305-0.5309-1.7867-0.6413c-0.6562-0.1074-1.3303-0.1014-2.0194,0.0209
				c-0.7069,0.1223-1.3452,0.346-1.9179,0.6711c-0.5727,0.3221-1.044,0.7248-1.4258,1.2051
				c-0.3788,0.4802-0.6473,1.0231-0.8054,1.6286c-0.1581,0.6055-0.173,1.2617-0.0507,1.9687
				c0.1014,0.5787,0.2476,1.0678,0.4444,1.4735c0.1939,0.4027,0.4206,0.7517,0.6801,1.047
				c0.2565,0.2923,0.5429,0.5459,0.8531,0.7546c0.3072,0.2118,0.6204,0.4116,0.9366,0.6055L16.7415,122.8499z"/>
			<path fill="#D36363" d="M19.262,138.3784c-0.519-1.0887-0.7994-2.1924-0.8471-3.3169c-0.0477-1.1215,0.1133-2.1894,0.4802-3.2035
				c0.3669-1.0112,0.9306-1.9388,1.6972-2.78c0.7636-0.8412,1.6883-1.5212,2.777-2.0373c1.1036-0.525,2.2162-0.8173,3.3437-0.874
				s2.2013,0.0925,3.2155,0.4474c1.0201,0.355,1.9448,0.9038,2.7889,1.6495c0.8412,0.7457,1.5182,1.6644,2.0373,2.7531
				s0.7994,2.1953,0.8471,3.3169c0.0477,1.1245-0.1133,2.1924-0.4802,3.2035c-0.3669,1.0142-0.9277,1.9388-1.6853,2.777
				c-0.7547,0.8352-1.6823,1.5183-2.7859,2.0432c-1.0917,0.516-2.2013,0.8054-3.3348,0.868
				c-1.1364,0.0597-2.2132-0.0865-3.2274-0.4444c-1.0171-0.355-1.9448-0.9038-2.7859-1.6495
				C20.4611,140.3858,19.781,139.4671,19.262,138.3784z M22.3969,136.89c0.3072,0.6473,0.7069,1.1693,1.2021,1.566
				c0.4951,0.3967,1.044,0.6711,1.6405,0.8292c0.5966,0.1581,1.223,0.1999,1.8732,0.1253c0.6503-0.0746,1.2886-0.2625,1.9209-0.5638
				c0.6324-0.2983,1.1842-0.6771,1.6525-1.1365c0.4683-0.4564,0.8262-0.9634,1.0738-1.5242
				c0.2506-0.5608,0.3699-1.1543,0.3699-1.7837c0-0.6324-0.1551-1.2707-0.4653-1.9179c-0.3072-0.6473-0.7069-1.1752-1.1991-1.5809
				c-0.4892-0.4086-1.0321-0.692-1.6227-0.8531c-0.5906-0.1611-1.211-0.2028-1.8583-0.1283
				c-0.6503,0.0746-1.2916,0.2625-1.9239,0.5608c-0.6324,0.3013-1.1842,0.6801-1.6525,1.1364
				c-0.4683,0.4594-0.8292,0.9694-1.0857,1.5302c-0.2565,0.5638-0.3818,1.1663-0.3848,1.8076
				C21.9346,135.5984,22.0897,136.2427,22.3969,136.89z"/>
			<path fill="#D36363" d="M40.9172,143.0166l2.3445,2.595l-2.8277,8.2803l8.4593-2.0432l2.3624,2.61l-11.5852,11.4868
				l-2.4757-2.7352l7.5942-7.4868l-6.9738,1.7569l-1.2766-1.4138l2.2669-6.8575l-8.1311,6.7829l-2.3564-2.61L40.9172,143.0166z"/>
			<path fill="#D36363" d="M55.9774,158.1037l4.9843,3.2274c0.8471,0.5488,1.4914,1.1394,1.9358,1.7778
				c0.4415,0.6353,0.7278,1.2796,0.8561,1.9358s0.1133,1.3095-0.0477,1.9627c-0.1611,0.6532-0.4295,1.2677-0.7994,1.8404
				c-0.4772,0.7397-1.0231,1.3035-1.6346,1.6942c-0.6115,0.3878-1.2528,0.6294-1.9209,0.7189
				c-0.6711,0.0895-1.3482,0.0507-2.0343-0.1223c-0.6831-0.17-1.3333-0.4564-1.9478-0.8531l-2.1148-1.3691l-3.12,4.8202
				l-3.0126-1.9508L55.9774,158.1037z M56.6814,167.5831c0.5757,0.3728,1.1424,0.4922,1.7032,0.3609s1.0201-0.4772,1.384-1.041
				c0.3729-0.5727,0.5041-1.1514,0.3997-1.736c-0.1074-0.5816-0.4504-1.0619-1.0261-1.4317l-1.7837-1.1573l-2.4817,3.8359
				L56.6814,167.5831z"/>
			<path fill="#D36363" d="M69.409,166.3184l3.5018,1.2349l-3.2065,9.1035c-0.179,0.5071-0.2893,0.9813-0.3341,1.4228
				c-0.0447,0.4444-0.003,0.8531,0.1283,1.2259c0.1253,0.3728,0.349,0.7039,0.6681,0.9992
				c0.3221,0.2923,0.7576,0.5369,1.3095,0.7338c0.5399,0.1879,1.0231,0.2684,1.4586,0.2416
				c0.4295-0.0298,0.8173-0.1491,1.1484-0.3609c0.3311-0.2118,0.6234-0.5011,0.865-0.874c0.2416-0.3729,0.4534-0.8113,0.6324-1.3184
				l3.2065-9.1035l3.5257,1.2409l-3.3586,9.542c-0.3251,0.9217-0.7755,1.7151-1.3423,2.3773
				c-0.5727,0.6622-1.2349,1.1693-1.9865,1.5153c-0.7517,0.349-1.5809,0.5369-2.4877,0.5608
				c-0.9098,0.0268-1.8553-0.1342-2.8396-0.4802c-0.9813-0.346-1.8195-0.8083-2.5115-1.39c-0.695-0.5816-1.223-1.2468-1.5928-1.9985
				c-0.3639-0.7517-0.5608-1.563-0.5906-2.437c-0.0298-0.874,0.1193-1.7718,0.4415-2.6935L69.409,166.3184z"/>
			<path fill="#D36363" d="M91.1239,175.4577l-5.2557-0.4832l0.2983-3.2363l14.1862,1.3035l-0.2983,3.2363l-5.2318-0.4802
				l-1.1931,12.9931l-3.6987-0.34L91.1239,175.4577z"/>
			<path fill="#D36363" d="M104.3735,172.7761l11.0424-1.4914l0.4295,3.1946l-7.3854,0.9992l0.4236,3.1469l5.7389-0.7755
				l0.4206,3.0991l-5.7389,0.7785l0.4713,3.4869l7.9194-1.0708l0.4355,3.2185l-11.5763,1.566L104.3735,172.7761z"/>
			<path fill="#D36363" d="M120.5761,169.9902l5.6554-2.1715c0.8829-0.3371,1.7062-0.5101,2.4727-0.516
				c0.7666-0.006,1.4556,0.1223,2.0731,0.3848c0.6145,0.2595,1.1394,0.6383,1.5839,1.1305c0.4415,0.4951,0.7904,1.0679,1.041,1.7211
				c0.3788,0.9903,0.4922,1.9359,0.34,2.8396c-0.1492,0.9038-0.5339,1.7271-1.1573,2.4728l5.7151,4.7964l-3.7882,1.4526
				l-4.9724-4.504l-1.9179,0.7338l2.1476,5.5898l-3.3557,1.2856L120.5761,169.9902z M128.6834,174.7567
				c0.6413-0.2446,1.0678-0.6294,1.2886-1.1484c0.2207-0.519,0.2177-1.0679-0.003-1.6465c-0.2416-0.6234-0.6115-1.05-1.1186-1.2737
				c-0.5041-0.2237-1.0738-0.2148-1.7151,0.0298l-2.1208,0.8143l1.5511,4.0387L128.6834,174.7567z"/>
			<path fill="#D36363" d="M160.8202,161.2864c0.0388,0.5816,0,1.1901-0.1133,1.8195c-0.1133,0.6324-0.2983,1.2588-0.5608,1.8732
				c-0.2625,0.6174-0.6025,1.217-1.0201,1.7957c-0.4236,0.5787-0.9187,1.1066-1.4974,1.5839
				c-0.9545,0.7875-1.9627,1.3452-3.0246,1.6704c-1.0619,0.3281-2.1178,0.4355-3.1737,0.3221
				c-1.0529-0.1133-2.0641-0.4385-3.0365-0.9754c-0.9724-0.5399-1.8553-1.2856-2.6428-2.2401
				c-0.7666-0.9306-1.3303-1.9299-1.6823-3.0007c-0.3549-1.0678-0.4951-2.1387-0.4146-3.2065s0.3758-2.1059,0.8889-3.1081
				c0.5101-1.0052,1.2528-1.906,2.2192-2.7054c1.1693-0.9634,2.3654-1.5928,3.5913-1.8851
				c1.2259-0.2953,2.4608-0.2774,3.7017,0.0507l-0.3997,3.466c-0.8143-0.2148-1.6107-0.2714-2.3892-0.167
				s-1.5302,0.4534-2.246,1.044c-0.5638,0.4653-0.9873,0.9903-1.2677,1.5719c-0.2834,0.5787-0.4295,1.1812-0.4444,1.8046
				c-0.0119,0.6234,0.0955,1.2468,0.3281,1.8702c0.2267,0.6234,0.5667,1.208,1.0112,1.7479
				c0.4564,0.5518,0.9664,0.9963,1.5302,1.3333c0.5638,0.34,1.1454,0.5548,1.7539,0.6473c0.6025,0.0925,1.208,0.0567,1.8135-0.1044
				s1.1842-0.4713,1.736-0.9276c0.4534-0.3729,0.8054-0.7457,1.0619-1.1126c0.2565-0.3699,0.4474-0.7397,0.5757-1.1096
				c0.1283-0.3699,0.2058-0.7397,0.2356-1.1126s0.0537-0.7457,0.0656-1.1156L160.8202,161.2864z"/>
			<path fill="#D36363" d="M154.9262,147.8846l2.2192-2.95l10.41,7.8329l4.683-6.2281l2.6189,1.9687l-6.9082,9.1751
				L154.9262,147.8846z"/>
			<path fill="#D36363" d="M163.815,135.4642l1.4914-3.4004l8.8381,3.8747c0.4922,0.2148,0.9575,0.3639,1.396,0.4385
				c0.4385,0.0775,0.8471,0.0656,1.2289-0.0358c0.3818-0.0984,0.7308-0.2953,1.047-0.5936
				c0.3162-0.2953,0.5936-0.7129,0.8292-1.2498c0.2267-0.522,0.346-1.0022,0.349-1.4347c0.003-0.4355-0.0865-0.8262-0.2714-1.1752
				c-0.1849-0.346-0.4564-0.6562-0.8113-0.9276c-0.352-0.2685-0.7726-0.513-1.2647-0.7278l-8.841-3.8747l1.5033-3.4243
				l9.2646,4.0596c0.8948,0.3937,1.6525,0.8978,2.2669,1.5182c0.6204,0.6174,1.0738,1.3154,1.3661,2.091
				c0.2923,0.7755,0.4176,1.6197,0.3758,2.5235c-0.0447,0.9068-0.2744,1.8374-0.692,2.7949
				c-0.4176,0.9545-0.9426,1.7539-1.5749,2.4041c-0.6324,0.6473-1.3363,1.1275-2.1118,1.4347
				c-0.7755,0.3102-1.5988,0.4474-2.4727,0.4086c-0.874-0.0358-1.7569-0.2476-2.6517-0.6413L163.815,135.4642z"/>
			<path fill="#D36363" d="M170.7202,117.7463l0.9903-6.0283c0.1641-0.9963,0.4176-1.8225,0.7666-2.4757
				c0.346-0.6532,0.7457-1.1633,1.205-1.5361c0.4534-0.3699,0.9545-0.6115,1.4914-0.7189c0.5369-0.1104,1.0798-0.1223,1.6256-0.0328
				c0.516,0.0865,0.9545,0.2535,1.3154,0.5011c0.3639,0.2506,0.6682,0.522,0.9068,0.8173c0.2416,0.2953,0.4176,0.5995,0.5339,0.9068
				c0.1163,0.3072,0.182,0.5518,0.1999,0.7368c0.1253-0.2595,0.2983-0.5608,0.519-0.9038c0.2267-0.3609,0.522-0.6831,0.8889-0.9694
				c0.3699-0.2863,0.8113-0.5071,1.3244-0.6622c0.513-0.1551,1.0917-0.179,1.733-0.0746c0.8382,0.1372,1.5182,0.4027,2.0492,0.7934
				c0.5309,0.3937,0.9366,0.8889,1.217,1.4884c0.2804,0.5995,0.4415,1.3035,0.4832,2.1088c0.0417,0.8083-0.0179,1.6942-0.176,2.6577
				l-0.9903,6.0283L170.7202,117.7463z M178.0907,113.111c0.0477-0.2744,0.0597-0.5488,0.0388-0.8233
				c-0.0209-0.2774-0.0835-0.525-0.1879-0.7487c-0.1014-0.2237-0.2625-0.4176-0.4713-0.5846
				c-0.2148-0.167-0.4892-0.2804-0.8262-0.3341c-0.3549-0.0597-0.6592-0.0418-0.9097,0.0477
				c-0.2565,0.0895-0.4683,0.2297-0.6383,0.4146c-0.173,0.1879-0.3072,0.4086-0.4057,0.6652
				c-0.1014,0.2565-0.173,0.513-0.2148,0.7696l-0.352,2.1446l3.6152,0.5936L178.0907,113.111z M184.975,114.0178
				c0.0418-0.2565,0.0716-0.5488,0.0835-0.8769s-0.0298-0.6413-0.1313-0.9396c-0.1014-0.2953-0.2714-0.5608-0.513-0.7904
				c-0.2446-0.2297-0.6085-0.3818-1.0887-0.4623c-0.4325-0.0716-0.8024-0.0418-1.1066,0.0925
				c-0.2983,0.1312-0.5488,0.3221-0.7457,0.5697c-0.1998,0.2476-0.352,0.528-0.4623,0.8411
				c-0.1104,0.3102-0.1849,0.6055-0.2297,0.8769l-0.3878,2.3624l4.1938,0.689L184.975,114.0178z"/>
		</g>
		<g>
			<path fill="#D36363" d="M176.5426,88.6042c-2.8635,0-5.372-2.0343-5.9686-4.8411c-0.34-1.5928-0.0388-3.2244,0.8501-4.5935
				c0.8889-1.3691,2.258-2.3087,3.8568-2.6487c3.2274-0.689,6.5562,1.4825,7.2423,4.7069c0.34,1.5928,0.0388,3.2244-0.8501,4.5935
				c-0.8889,1.3691-2.258,2.3087-3.8568,2.6487C177.3987,88.5595,176.9692,88.6042,176.5426,88.6042z M176.5546,79.441
				c-0.2118,0-0.4265,0.0239-0.6383,0.0686c-0.7994,0.17-1.4854,0.6383-1.9299,1.3244c-0.4444,0.6831-0.5936,1.4974-0.4236,2.2938
				c0.343,1.6137,1.9716,2.6994,3.6181,2.3534c0.7994-0.17,1.4854-0.6383,1.9299-1.3244c0.4444-0.6831,0.5936-1.4974,0.4236-2.2938
				C179.2361,80.4582,177.9833,79.441,176.5546,79.441z"/>
		</g>
		<g>
			<path fill="#D36363" d="M23.4588,88.6042L23.4588,88.6042c-0.4265,0-0.8561-0.0447-1.2766-0.1342
				c-1.5958-0.34-2.9649-1.2796-3.8538-2.6487c-0.8889-1.3691-1.1901-3.0007-0.8501-4.5965
				c0.686-3.2214,4.0059-5.3899,7.2452-4.7039c1.5958,0.34,2.9649,1.2796,3.8538,2.6487c0.8889,1.3691,1.1901,3.0007,0.8501,4.5965
				C28.8309,86.5699,26.3223,88.6042,23.4588,88.6042z M23.4469,79.441c-1.4288,0-2.6815,1.0171-2.9798,2.4191
				c-0.17,0.7994-0.0209,1.6137,0.4236,2.2968c0.4444,0.6861,1.1305,1.1544,1.9269,1.3244c1.6614,0.349,3.2781-0.7397,3.6211-2.3505
				c0.17-0.7994,0.0209-1.6137-0.4236-2.2968c-0.4444-0.686-1.1305-1.1543-1.9269-1.3244
				C23.8734,79.4649,23.6587,79.441,23.4469,79.441z"/>
		</g>
		<path fill="#D36363" d="M113.9789,142.5953c5.9298-1.9543,11.2952-5.1254,15.8462-9.2016L86.0225,57.5269
			c-5.9298,1.9543-11.2952,5.1254-15.8462,9.2018l19.2451,33.3325l-19.2451,33.3325c4.551,4.0762,9.9164,7.2473,15.8462,9.2016
			l13.9782-24.2102L113.9789,142.5953z"/>
		<path fill="#D36363" d="M100.0007,49.1546c28.0697,0,50.9065,22.8366,50.9065,50.9066s-22.8368,50.9066-50.9065,50.9066
			s-50.9065-22.8366-50.9065-50.9066S71.931,49.1546,100.0007,49.1546 M100.0007,33.8826
			c-36.5495,0-66.1785,29.6292-66.1785,66.1786s29.629,66.1786,66.1785,66.1786s66.1785-29.6292,66.1785-66.1786
			S136.5502,33.8826,100.0007,33.8826L100.0007,33.8826z"/>
	</g>
</g>
</svg>
